<?xml version="1.0" encoding="UTF-8" standalone="no"?>
<!-- Created with Inkscape (http://www.inkscape.org/) -->




<svg
   width="1807.5428"
   height="1206.2454"
   viewBox="0 0 1807.5428 1206.2454"
   version="1.1"
   id="svg298"
   xml:space="preserve"
   xmlns="http://www.w3.org/2000/svg"
   xmlns:svg="http://www.w3.org/2000/svg"><defs
     id="defs295"><rect
       x="481.70541"
       y="737.18481"
       width="811.29333"
       height="171.61974"
       id="rect9112" /></defs><g
     id="layer1"
     style="display:inline"
     transform="translate(6.2038379,0.36599949)">
     
     
     <style>



		
			#cloud1 {	animation: cloud 2.5s infinite linear;  }		
			#cloud2 {	animation: cloud 2s infinite linear;  }
			#cloud3 {	animation: cloud 4.5s infinite linear;  }			
			#cloud4 {	animation: cloud 2.1s infinite linear;  }			
			
			@keyframes cloud {
			    0% {    transform:translate(0,0) }  		
			    100% {    transform:translate(-1500px,2000px) }  
			}			
			
			#fire1 {
				animation: fire 1s infinite linear;
				animation-delay: 0s;			
			}
	
			#fire2 {
				animation: fire 1s infinite linear;
				animation-delay: .3s;			
			}
			
			#fire3 {	
				animation: fire 1s infinite linear;			
				animation-delay: .6s;	
			}		
			
			@keyframes fire {
			    0% {    fill: red;   }   33% {    fill: red;   }  
			    33.0001% {   fill: yellow;}  66% {   fill: yellow; } 
			    66.0001% {   fill: orange; }   100% {   fill: orange; }	
			}					
		
			
			#loading { 
				display:none;
				animation: loading 1s infinite linear;	
			}

			@keyframes loading {
			    0%   { fill-opacity: .5; }  	
			    50%  { fill-opacity:  1; }  				    	
			    100% { fill-opacity: .5; }  
			}	
			
			
			
			
			#ship.fly {
			
				animation: ship 2s linear;	
				animation-fill-mode: forwards;	
			}
	
	
			@keyframes ship {
			    0% {    transform:translate(0,0) }  		
			    100% {    transform:translate(1500px,-2000px) }  
			}	
					



	 </style>
     
     
     
     <g
       id="layer3"
       style="display:inline"><rect
         style="display:inline;opacity:1;fill:#a8baec;fill-opacity:1;stroke:#000000;stroke-width:0.731999;stroke-linecap:round;stroke-linejoin:round;stroke-miterlimit:12.2;stroke-dasharray:none;stroke-opacity:1;paint-order:markers stroke fill"
         id="rect2208"
         width="1806.8108"
         height="1205.5134"
         x="-5.8378382"
         y="0" /><g
         id="cloud1"
         style="display:inline"
         transform="translate(-12.383926,1465.4311)"><path
           style="display:inline;opacity:1;fill:#ffffff;fill-opacity:1;stroke:#000000;stroke-width:43.1641;stroke-linecap:round;stroke-linejoin:round;stroke-miterlimit:12.2;stroke-dasharray:none;stroke-opacity:1;paint-order:markers stroke fill"
           d="m 2226.7228,-1431.0313 c -30.7837,-30.7837 -34.6706,-31.5421 -34.6706,-6.7646 0,44.3732 -84.3206,28.5191 -90.7955,-17.0715 -2.742,-19.3072 -9.8532,-35.104 -15.8026,-35.104 -5.9494,0 -17.7475,15.7968 -26.218,35.104 -11.0474,25.1809 -28.6319,35.1041 -62.2064,35.1041 -42.6467,0 -46.3575,-4.1239 -41.7643,-46.4139 l 5.041,-46.4139 -39.4001,42.5135 c -58.3131,62.9208 -125.8292,56.3334 -163.9177,-15.9934 -30.5868,-58.0818 17.2588,-127.9949 87.9236,-128.4758 22.8154,-0.1561 35.3905,9.3189 35.9224,27.0642 0.687,22.9212 4.7484,21.6692 25.3057,-7.8009 17.4775,-25.055 40.1213,-35.1041 79.101,-35.1041 44.4212,0 51.3095,-3.9812 36.9091,-21.3326 -26.8449,-32.3461 18.508,-62.7723 76.3297,-51.208 42.5743,8.5149 68.3419,-11.2781 30.9213,-23.7516 -34.0575,-11.3525 33.1531,-75.3275 79.1372,-75.3275 46.5261,0 107.9157,46.2066 108.8241,81.9094 0.303,11.9103 8.5645,8.8736 21.2222,-7.8009 27.0494,-35.6331 49.1298,-34.4639 88.2676,4.6738 l 31.9769,31.977 -35.8774,29.9112 c -39.2511,32.7237 -28.3028,40.518 20.3439,14.4831 38.0125,-20.3437 83.4047,-7.0523 123.7271,36.2287 39.6715,42.5824 38.8957,90.3939 -2.3171,142.7874 -26.7179,33.9664 -43.6627,41.043 -89.0941,37.2081 -44.604,-3.7651 -58.3069,-12.7291 -66.8636,-43.7401 -6.7654,-24.5189 -11.3399,-28.8646 -12.3175,-11.7014 -2.2432,39.3824 -58.0631,89.7104 -99.4998,89.7104 -19.5456,0 -51.1392,-15.6018 -70.2081,-34.6707 z"
           id="path4221"
           transform="scale(0.26458333)" /><path
           style="display:inline;fill:#000000;stroke-width:0.625888"
           d="m 612.02346,-363.48585 c 7.68158,-1.33391 13.92558,-4.78553 19.11846,-10.56849 l 3.20948,-3.57417 3.49643,2.10951 c 23.84592,14.38705 55.13218,-3.6252 55.13218,-31.74093 0,-19.4657 -16.97926,-36.92738 -35.90716,-36.92738 -1.30829,0 -1.5998,-0.37709 -1.96567,-2.54262 -2.66586,-15.77911 -21.89559,-27.76249 -38.05189,-23.71279 l -2.62423,0.65779 -3.75533,-3.65408 c -17.21398,-16.7498 -45.2701,-11.53704 -54.81609,10.18471 l -2.053,4.67156 h -3.88923 c -10.52455,0 -20.82935,7.23154 -23.85774,16.74249 l -1.04626,3.28593 h -3.27232 c -5.7033,0 -14.05296,3.46191 -17.04508,7.06721 -0.6583,0.7932 -1.2418,0.71879 -4.4154,-0.56309 -12.17722,-4.91858 -25.14376,-2.21828 -34.55901,7.19695 -26.50876,26.50876 7.87882,69.07072 39.5681,48.97398 l 2.83148,-1.79567 1.46033,2.13121 c 8.12087,11.85167 27.30729,12.63642 37.81306,1.54663 l 1.8112,-1.91188 2.44213,2.09036 c 8.85242,7.57734 21.67081,9.83182 32.12397,5.6499 3.68639,-1.47478 4.25766,-1.55522 5.19567,-0.73154 4.5791,4.02096 15.84491,6.66661 23.05592,5.41441 z m -16.15916,-5.44489 c -5.41511,-2.66586 -9.39479,-6.27136 -12.12921,-10.98883 l -2.24294,-3.86957 0.29619,3.19984 c 0.16287,1.75991 0.885,4.35394 1.60462,5.76454 0.71963,1.41058 1.30842,2.67817 1.30842,2.81689 0,0.9479 -7.79309,2.48191 -12.46975,2.45461 -9.91804,-0.0578 -22.91043,-7.29348 -20.65702,-11.50403 1.03638,-1.93649 0.99681,-7.88449 -0.0681,-10.2425 l -0.84801,-1.87766 -0.42225,3.75532 c -1.63016,14.49778 -13.65519,22.86734 -27.49779,19.13881 -5.66363,-1.5255 -13.99136,-9.31564 -11.72785,-10.97076 2.43411,-1.77987 4.83057,-7.92602 4.77108,-12.23631 -0.0435,-3.15368 -0.15985,-3.63442 -0.51758,-2.13845 -3.63774,15.21381 -21.33073,25.12358 -35.86093,20.08555 -24.29761,-8.42462 -26.65801,-40.4633 -3.88475,-52.72914 8.03769,-4.32914 27.1184,-3.02195 25.57275,1.75195 -0.60761,1.87669 -0.80407,7.39018 -0.31299,8.78386 0.2607,0.73987 0.87025,-0.45007 1.85404,-3.61933 3.98612,-12.84124 21.19659,-18.25605 31.9441,-10.05035 0.75359,0.57535 0.7656,0.45187 0.0811,-0.83245 -1.01365,-1.90179 -3.5599,-4.28294 -5.10393,-4.773 -1.53333,-0.48668 -1.46733,-1.83008 0.26031,-5.29791 6.4785,-13.00416 19.73342,-16.62281 32.81254,-8.95794 1.501,0.87966 2.84605,1.48242 2.989,1.33948 0.49494,-0.49494 -4.39375,-5.33947 -6.46959,-6.41113 -1.53946,-0.79476 -1.97296,-1.35179 -1.65716,-2.12933 0.23524,-0.57915 0.72848,-1.89795 1.09608,-2.93066 9.92773,-27.88908 52.24234,-23.30689 57.06222,6.17919 0.40371,2.46975 0.8376,2.72202 1.32713,0.77163 0.71318,-2.84157 0.65841,-6.85054 -0.13076,-9.56488 -2.30931,-7.94359 18.79499,-4.2724 27.86719,4.84762 4.7655,4.79063 9.39385,15.60426 6.67879,15.60426 -2.67626,0 -7.51247,2.2547 -10.39486,4.84622 -4.24994,3.82107 -5.3044,5.89257 -1.53481,3.01518 3.93253,-3.00176 14.65334,-5.92699 18.62697,-5.08247 0.77465,0.16465 2.55674,0.43657 3.96018,0.60431 17.3034,2.06802 30.92286,21.94181 27.06245,39.49006 -5.04969,22.95437 -31.10904,34.08855 -50.56422,21.60419 l -2.98905,-1.91806 0.83257,-2.33242 c 0.89448,-2.50585 1.21108,-12.65954 0.39475,-12.65954 -0.27103,0 -0.5583,0.86009 -0.6384,1.9113 -1.51544,19.88836 -23.31821,33.50243 -40.28053,25.15191 z"
           id="cloud" /></g><g
         id="cloud2"
         style="display:inline"
         transform="matrix(1.8201237,0,0,1,-93.943428,288.95824)"><path
           style="display:inline;opacity:1;fill:#ffffff;fill-opacity:1;stroke:#000000;stroke-width:21.5821;stroke-linecap:round;stroke-linejoin:round;stroke-miterlimit:12.2;stroke-dasharray:none;stroke-opacity:1;paint-order:markers stroke fill"
           d="m 790.17264,-186.15986 c -32.53878,-14.4394 -60.8361,-42.17461 -73.18609,-71.73231 -14.85964,-35.56411 -21.12043,-33.92339 -17.44923,4.57279 l 2.99575,31.41338 -38.69629,11.49155 c -48.83693,14.50302 -69.93584,14.43225 -119.88861,-0.40213 -69.05431,-20.50693 -117.35055,-75.30907 -107.92067,-122.45848 10.45555,-52.27772 60.3496,-94.3985 126.57351,-106.85392 34.8085,-6.5468 56.87293,-4.69486 123.87796,10.39746 l 23.40269,5.27125 -18.7098,-13.99588 c -10.29039,-7.69775 -28.96036,-17.60494 -41.48883,-22.01599 l -22.77901,-8.02009 16.87329,-21.45092 c 22.51352,-28.6213 70.22555,-52.05654 117.3437,-57.63699 l 38.47097,-4.55631 v 28.38973 c 0,36.31527 7.40876,35.78795 29.02108,-2.0656 22.92058,-40.14496 72.94106,-64.64812 133.1293,-65.21506 60.11264,-0.56623 97.46124,13.1026 126.65594,46.35356 l 24.3557,27.73955 -24.8456,15.10946 c -34.1523,20.76927 -25.5102,24.53467 25.6978,11.19668 53.5471,-13.94725 92.4709,-6.51738 123.974,23.66446 l 22.7987,21.84262 -17.7024,13.353 c -22.3178,16.83436 -15.0689,25.19369 12.6939,14.63829 47.7517,-18.15516 113.8167,2.18997 135.4199,41.70339 l 13.3326,24.38599 2.444,-25.08846 c 2.1236,-21.79777 6.0117,-25.75774 29.6435,-30.19109 37.3051,-6.99847 85.8484,1.88001 122.3039,22.36913 84.073,47.25167 62.4757,144.64516 -38.5907,174.02596 -34.7969,10.11574 -49.2578,10.73386 -79.7857,3.41032 -47.8696,-11.48373 -84.6361,-33.98897 -95.8944,-58.69807 -9.3867,-20.60164 -22.0245,-26.22789 -21.9433,-9.76904 0.023,5.36311 5.3292,19.87778 11.7841,32.2548 14.2373,27.29984 6.8574,39.0004 -32.8679,52.11096 -57.5362,18.98862 -119.7495,-4.21643 -139.7703,-52.13319 -13.3143,-31.86544 -28.4778,-27.42545 -24.9721,7.31199 2.2619,22.41235 -0.3308,25.4148 -32.647,37.80665 -36.5349,14.00951 -98.4939,18.40485 -114.65148,8.13331 -6.15945,-3.91563 -6.86414,-9.85111 -2.06967,-17.43256 16.04685,-25.37477 7.47546,-33.88568 -13.9439,-13.8455 -11.79886,11.03914 -32.68695,25.73752 -46.41799,32.66307 -29.26653,14.76121 -105.25876,15.84749 -136.57132,1.95224 z"
           id="path1941"
           transform="scale(0.26458333)" /><path
           style="display:inline;fill:#000000;stroke-width:0.732;stroke-dasharray:none"
           d="m 220.11814,-41.5038 c -10.49465,-1.33391 -19.02526,-4.78553 -26.11982,-10.56849 l -4.38482,-3.57417 -4.77686,2.10951 c -32.57852,14.38705 -75.32211,-3.6252 -75.32211,-31.740931 0,-19.465699 23.19722,-36.927389 49.05671,-36.927389 1.7874,0 2.18566,-0.37709 2.68552,-2.54262 3.64212,-15.77911 29.91396,-27.76249 51.98685,-23.71279 l 3.58524,0.65779 5.13057,-3.65408 c 23.5179,-16.7498 61.84844,-11.53704 74.89026,10.18471 l 2.80482,4.67156 h 5.31351 c 14.37873,0 28.45725,7.23154 32.59466,16.74249 l 1.42941,3.28593 h 4.47068 c 7.7919,0 19.19928,3.46191 23.28715,7.06721 0.89937,0.7932 1.69655,0.71879 6.03236,-0.56309 16.63663,-4.91858 34.35164,-2.21828 47.21484,7.19696 36.21652,26.508759 -10.76412,69.07072 -54.05831,48.97398 l -3.86839,-1.79567 -1.99512,2.13121 c -11.09481,11.85167 -37.30747,12.63642 -51.66056,1.54663 l -2.47447,-1.91188 -3.33647,2.09036 c -12.09425,7.57734 -29.60686,9.83182 -43.88806,5.6499 -5.03638,-1.47478 -5.81686,-1.55522 -7.09838,-0.73154 -6.25601,4.02096 -21.64746,6.66661 -31.49921,5.41441 z m 22.0768,-5.44489 c 7.39817,-2.66586 12.83525,-6.27136 16.57104,-10.98883 l 3.06432,-3.869571 -0.40466,3.199841 c -0.22251,1.75991 -1.20909,4.35394 -2.19224,5.76454 -0.98317,1.41058 -1.78758,2.67817 -1.78758,2.81689 0,0.9479 10.64699,2.48191 17.03629,2.45461 13.55012,-0.0578 31.30044,-7.29348 28.22181,-11.50403 -1.41591,-1.936491 -1.36185,-7.884491 0.093,-10.242501 l 1.15856,-1.87766 0.57688,3.75532 c 2.22714,14.497781 18.65585,22.867341 37.56774,19.138811 7.73771,-1.5255 19.11513,-9.31564 16.0227,-10.97076 -3.3255,-1.779871 -6.59957,-7.926021 -6.51829,-12.236311 0.0594,-3.15368 0.21838,-3.63442 0.70712,-2.13845 4.96991,15.213811 29.14224,25.123581 48.99354,20.085551 33.19562,-8.424621 36.42042,-40.463301 5.30738,-52.72914 -10.98117,-4.32915 -37.04941,-3.02196 -34.93773,1.75195 0.83012,1.87669 1.09853,7.390179 0.42761,8.783859 -0.35617,0.73987 -1.18895,-0.45007 -2.53301,-3.61933 -5.44587,-12.841249 -28.95898,-18.256059 -43.64233,-10.050359 -1.02956,0.57535 -1.04597,0.45187 -0.1108,-0.83245 1.38486,-1.90179 4.86357,-4.28294 6.97304,-4.773 2.09485,-0.48668 2.00468,-1.83008 -0.35564,-5.29791 -8.85098,-13.00416 -26.95998,-16.62281 -44.8288,-8.95794 -2.05068,0.87966 -3.8883,1.48242 -4.0836,1.33948 -0.67619,-0.49494 6.00279,-5.33947 8.83882,-6.41113 2.10322,-0.79476 2.69547,-1.35179 2.26403,-2.12933 -0.32139,-0.57915 -0.99526,-1.89795 -1.49748,-2.93066 -13.56336,-27.88908 -71.37397,-23.30689 -77.95894,6.17919 -0.55155,2.46975 -1.14433,2.72202 -1.81314,0.77163 -0.97435,-2.84157 -0.89952,-6.85054 0.17865,-9.56488 3.155,-7.94359 -25.67789,-4.2724 -38.07242,4.84762 -6.51067,4.79063 -12.83396,15.60426 -9.12462,15.60426 3.65633,0 10.26361,2.2547 14.20155,4.84622 5.80631,3.82107 7.24692,5.89257 2.09688,3.01518 -5.37266,-3.00176 -20.01953,-5.92699 -25.44834,-5.08247 -1.05834,0.16465 -3.49305,0.43657 -5.41044,0.60431 -23.64008,2.06802 -42.24711,21.941819 -36.97299,39.490069 6.89894,22.954371 42.50148,34.088551 69.08133,21.604191 l 4.08367,-1.91806 -1.13747,-2.332421 c -1.22205,-2.50585 -1.65459,-12.65954 -0.53931,-12.65954 0.37028,0 0.76275,0.86009 0.87219,1.9113 2.07041,19.888361 31.85755,33.502431 55.03164,25.151911 z"
           id="path1754" /></g><g
         id="cloud3"
         style="display:inline"
         transform="translate(-211.07126,266.73061)"><path
           style="display:inline;opacity:1;fill:#ffffff;fill-opacity:1;stroke:#000000;stroke-width:43.1641;stroke-linecap:round;stroke-linejoin:round;stroke-miterlimit:12.2;stroke-dasharray:none;stroke-opacity:1;paint-order:markers stroke fill"
           d="m 5537.7328,-128.95372 c -9.0784,-6.30434 -28.3856,-28.82143 -42.9049,-50.03796 -25.0304,-36.5759 -26.3988,-36.87241 -26.3988,-5.72012 0,72.31084 -146.1219,42.35166 -165.2554,-33.88209 -22.4215,-89.33454 63.2921,-171.07989 141.8527,-135.2853 43.7802,19.94761 54.1491,-2.73713 12.0261,-26.31035 -25.3437,-14.18304 -25.1972,-17.06615 2.418,-47.58064 36.0111,-39.79178 86.5698,-42.76684 88.0235,-5.17962 0.8599,22.23398 4.1072,20.99183 17.4904,-6.69039 9.039,-18.69644 36.6056,-42.34868 61.2592,-52.56052 58.9114,-24.40192 130.2522,15.77913 114.7479,64.62908 -8.5358,26.89384 -4.5256,29.61602 30.6303,20.79245 46.4862,-11.66731 89.2347,15.77426 76.4546,49.07859 -6.251,16.28989 4.2534,22.262 39.1566,22.262 28.7879,0 54.1924,10.82495 64.0764,27.30314 15.3951,25.66606 17.3373,25.70491 32.3915,0.64795 17.3561,-28.88833 51.503,-23.31682 97.0986,15.84295 57.0418,48.9904 13.2361,143.4275 -66.5306,143.4275 -20.2237,0 -54.0599,-15.79682 -75.1915,-35.10404 l -38.421,-35.10404 8.7051,35.30824 c 12.1123,49.12763 -34.1404,72.97057 -79.679,41.07405 -18.4887,-12.94996 -34.3156,-35.43368 -35.1709,-49.96383 -0.9642,-16.3802 -5.5277,-12.2336 -12.0098,10.91289 -5.75,20.53223 -26.3853,43.22448 -45.856,50.42719 -28.2543,10.45191 -37.7777,6.67217 -47.1716,-18.72172 l -11.77,-31.81755 -29.0467,32.0962 c -29.1788,32.2422 -80.1761,41.50884 -110.9247,20.15594 z"
           id="path3943"
           transform="scale(0.26458333)" /><path
           style="display:inline;fill:#000000;stroke-width:0.595756"
           d="m 1472.8058,-24.975415 c -7.3467,-1.263655 -13.3185,-4.533482 -18.285,-10.011862 l -3.0696,-3.385923 -3.344,1.998405 c -22.8062,13.629304 -52.7286,-3.434266 -52.7286,-30.069177 0,-18.440469 16.2391,-34.982478 34.3419,-34.982478 1.2512,0 1.5299,-0.35723 1.8798,-2.4087 2.5496,-14.94805 20.9411,-26.30027 36.393,-22.46387 l 2.5098,0.62315 3.5916,-3.46163 c 16.4636,-15.86761 43.2965,-10.9294 52.4263,9.6483 l 1.9636,4.42551 h 3.7197 c 10.0656,0 19.9213,6.85066 22.8175,15.860687 l 1.0006,3.112864 h 3.1297 c 5.4548,0 13.4404,3.279576 16.302,6.69499 0.6296,0.751422 1.1877,0.680931 4.223,-0.533433 11.6463,-4.659526 24.0475,-2.101446 33.0523,6.817904 25.3531,25.112581 -7.5353,65.43286 -37.8431,46.394588 l -2.7081,-1.701095 -1.3966,2.018962 c -7.7668,11.227459 -26.1167,11.970877 -36.1646,1.465171 l -1.7322,-1.811183 -2.3356,1.980263 c -8.4665,7.178252 -20.7261,9.313992 -30.7235,5.352328 -3.5257,-1.397106 -4.072,-1.473309 -4.9691,-0.693011 -4.3795,3.809181 -15.1541,6.315488 -22.0508,5.12924 z m 15.4546,-5.158115 c 5.1791,-2.525452 8.9853,-5.941056 11.6005,-10.410063 l 2.1452,-3.665764 -0.2833,3.031308 c -0.1559,1.667218 -0.8464,4.124624 -1.5346,5.460929 -0.6884,1.336287 -1.2515,2.537115 -1.2515,2.668529 0,0.897975 7.4533,2.351191 11.9261,2.325329 9.4857,-0.05476 21.9116,-6.909343 19.7565,-10.898129 -0.9912,-1.834498 -0.9534,-7.469224 0.065,-9.70304 l 0.8109,-1.778767 0.4039,3.557533 c 1.5591,13.734201 13.06,21.662947 26.299,18.130794 5.4167,-1.445154 13.3814,-8.824998 11.2166,-10.392945 -2.3281,-1.686127 -4.6201,-7.508566 -4.5632,-11.59184 0.042,-2.987579 0.1529,-3.443 0.4951,-2.025822 3.4791,14.41252 20.4008,23.800356 34.2976,19.027672 23.2382,-7.980906 25.4957,-38.332152 3.7154,-49.951967 -7.6873,-4.10114 -25.9362,-2.862799 -24.458,1.659677 0.5811,1.777847 0.7691,7.000949 0.2994,8.321226 -0.2494,0.700901 -0.8323,-0.426367 -1.7732,-3.428705 -3.8123,-12.164918 -20.2725,-17.294538 -30.5515,-9.521021 -0.7207,0.545046 -0.7322,0.428071 -0.078,-0.788606 0.9694,-1.801625 3.4047,-4.057363 4.8814,-4.521612 1.4664,-0.461047 1.4034,-1.733693 -0.249,-5.018877 -6.196,-12.319249 -18.8731,-15.747309 -31.3819,-8.486139 -1.4356,0.83333 -2.7221,1.40434 -2.8587,1.26893 -0.4734,-0.46887 4.2022,-5.05824 6.1875,-6.07346 1.4723,-0.7529 1.8869,-1.28059 1.5848,-2.01718 -0.2249,-0.54865 -0.6967,-1.79799 -1.0483,-2.77631 -9.4948,-26.42019 -49.9647,-22.07934 -54.5744,5.85374 -0.3862,2.33967 -0.8011,2.57866 -1.2693,0.73099 -0.682,-2.69191 -0.6296,-6.48973 0.125,-9.06111 2.2088,-7.52521 -17.9755,-4.04737 -26.6521,4.5923 -4.5578,4.53832 -8.9844,14.78241 -6.3877,14.78241 2.5596,0 7.1849,2.135946 9.9417,4.590975 4.0646,3.619818 5.0731,5.582215 1.4679,2.856373 -3.7611,-2.843661 -14.0145,-5.614822 -17.8149,-4.814782 -0.741,0.155979 -2.4454,0.413575 -3.7876,0.572481 -16.549,1.959101 -29.5748,20.786174 -25.8827,37.410182 4.8296,21.745394 29.7529,32.293152 48.3599,20.466326 l 2.8587,-1.817038 -0.7962,-2.209574 c -0.8555,-2.373872 -1.1583,-11.99278 -0.3776,-11.99278 0.2592,0 0.534,0.81479 0.6106,1.810633 1.4493,18.840868 22.3016,31.737904 38.5244,23.827194 z"
           id="path1752" /></g><g
         id="cloud4"
         style="display:inline"
         transform="translate(448.42553,1158.5547)"><path
           style="display:inline;opacity:1;fill:#ffffff;fill-opacity:1;stroke:#000000;stroke-width:21.5821;stroke-linecap:round;stroke-linejoin:round;stroke-miterlimit:12.2;stroke-dasharray:none;stroke-opacity:1;paint-order:markers stroke fill"
           d="m 4170.9517,-925.48275 c -39.5868,-11.40413 -90.3923,-66.81773 -103.1215,-112.47475 l -10.7524,-38.5663 -4.206,46.7535 -4.2061,46.75362 -40.7752,14.61604 c -76.0775,27.2703 -159.2458,-4.87806 -202.1892,-78.15536 -80.9789,-138.1801 74.5691,-308.2924 217.318,-237.6659 17.9278,8.87 34.0558,14.6675 35.84,12.8833 5.8401,-5.8401 -39.7414,-43.3787 -58.3412,-48.047 -22.148,-5.5588 -22.4167,-10.7461 -2.5713,-49.6461 20.4096,-40.0063 72.7438,-71.1457 122.4549,-72.8621 l 36.848,-1.2722 -2.1751,32.3602 c -2.761,41.0754 11.2444,50.9013 21.1935,14.8688 11.9568,-43.3039 39.3333,-74.8796 82.2457,-94.861 65.1326,-30.3279 119.1592,-21.9731 169.8518,26.2664 39.7012,37.78 44.0969,60.5862 17.1072,88.7574 -23.9841,25.034 -17.909,27.8096 23.2382,10.6172 57.5411,-24.0422 116.2841,-6.0879 141.8526,43.3559 12.1701,23.5345 11.9706,25.3117 -4.8526,43.2192 -17.7761,18.9217 -15.7963,35.4813 2.4806,20.7494 40.5628,-32.6952 123.601,-6.4941 145.6101,45.9444 15.6649,37.3232 24.2479,38.2279 24.2479,2.5559 0,-22.7866 3.6744,-28.9154 21.4525,-35.7818 31.7061,-12.246 87.4206,-2.0534 122.1694,22.35 102.7193,72.1378 72.8942,224.10439 -50.9538,259.62355 -54.3477,15.58671 -135.8013,-27.49873 -161.6329,-85.49675 l -12.4204,-27.8866 -2.7391,21.5418 c -1.5065,11.848 2.9498,32.9104 9.9028,46.8054 12.4829,24.94582 12.3468,25.52805 -10.8296,46.2978 -66.0822,59.2204 -156.1831,20.65976 -176.4843,-75.5303 -4.3954,-20.8261 -5.7703,-21.7657 -12.9848,-8.8742 -4.4378,7.93 -6.151,26.2366 -3.8069,40.6814 3.595,22.15341 0.9747,28.60371 -16.7452,41.22139 -29.3273,20.88292 -82.3864,33.77795 -114.3288,27.78552 l -26.9261,-5.05136 4.6611,-36.23516 4.661,-36.23519 -24.9061,33.75075 c -39.2361,53.16952 -93.9572,72.52215 -155.1867,54.8832 z"
           id="path2150"
           transform="scale(0.26458333)" /><path
           style="display:inline;fill:#000000;stroke-width:0.873131"
           d="m 1107.9018,-237.70628 c -10.7161,-1.86084 -19.4266,-6.67595 -26.6708,-14.74334 l -4.4774,-4.98607 -4.8776,2.94283 c -33.2657,20.07033 -76.91086,-5.05725 -76.91086,-44.27948 0,-27.15519 23.68656,-51.51473 50.09146,-51.51473 1.8251,0 2.2318,-0.52605 2.7422,-3.54703 3.7189,-22.01229 30.5449,-38.72944 53.0834,-33.08 l 3.6609,0.91764 5.2388,-5.09754 c 24.0138,-23.36644 63.153,-16.0945 76.47,14.20795 l 2.8639,6.51695 h 5.4256 c 14.682,0 29.0574,10.0882 33.2821,23.35624 l 1.4597,4.58397 h 4.5649 c 7.9563,0 19.6043,4.82946 23.7784,9.85895 0.9183,1.10654 1.7323,1.00273 6.1596,-0.78553 16.9875,-6.86155 35.0762,-3.09456 48.2108,10.03996 36.9805,36.98046 -10.9912,96.35557 -55.1986,68.32006 l -3.9501,-2.50501 -2.0371,2.9731 c -11.3289,16.53341 -38.0945,17.62816 -52.7503,2.15759 l -2.5267,-2.66712 -3.4068,2.91611 c -12.3494,10.5706 -30.2314,13.71566 -44.8139,7.88176 -5.1426,-2.05735 -5.9395,-2.16957 -7.248,-1.02051 -6.388,5.60935 -22.1041,9.3001 -32.1636,7.55325 z m 22.5424,-7.59577 c 7.5542,-3.71895 13.106,-8.74873 16.9206,-15.32973 l 3.1289,-5.39815 -0.4131,4.46386 c -0.2273,2.45512 -1.2346,6.07387 -2.2386,8.04169 -1.0039,1.9678 -1.8253,3.73613 -1.8253,3.92964 0,1.32235 10.8716,3.46234 17.3958,3.42425 13.8358,-0.0806 31.9606,-10.1746 28.817,-16.04844 -1.4458,-2.70146 -1.3905,-10.99908 0.095,-14.28857 l 1.183,-2.61939 0.589,5.23878 c 2.2741,20.2248 19.0494,31.90057 38.3602,26.69917 7.901,-2.12812 19.5184,-12.99558 16.3607,-15.30452 -3.3956,-2.48296 -6.7388,-11.05701 -6.6558,-17.06999 0.06,-4.39947 0.2231,-5.07011 0.7221,-2.98319 5.0747,21.22368 29.7569,35.04809 50.0269,28.01989 33.8958,-11.75257 37.1887,-56.44742 5.4194,-73.55861 -11.2128,-6.03928 -37.8309,-4.21572 -35.6748,2.44402 0.8477,2.61803 1.1218,10.30951 0.4367,12.25373 -0.3637,1.03214 -1.214,-0.62786 -2.5864,-5.04907 -5.5608,-17.9139 -29.5698,-25.46771 -44.5629,-14.02053 -1.0513,0.80263 -1.068,0.63037 -0.113,-1.16129 1.414,-2.65305 4.9662,-5.97482 7.1201,-6.65847 2.139,-0.67893 2.0469,-2.55301 -0.3631,-7.39073 -9.0377,-18.14116 -27.5287,-23.18928 -45.7745,-12.49657 -2.094,1.22715 -3.9703,2.06801 -4.1698,1.86861 -0.6904,-0.69046 6.1295,-7.44871 9.0253,-8.94371 2.1477,-1.10871 2.7524,-1.88578 2.3119,-2.97047 -0.3282,-0.80793 -1.0163,-2.64769 -1.5291,-4.08835 -13.8495,-38.90604 -72.8795,-32.51376 -79.6034,8.62014 -0.5632,3.44537 -1.1685,3.79729 -1.8513,1.07644 -0.995,-3.96406 -0.9185,-9.55669 0.1824,-13.34327 3.2216,-11.08153 -26.2195,-5.96011 -38.8755,6.76257 -6.648,6.68306 -13.1047,21.76837 -9.3171,21.76837 3.7334,0 10.4802,3.14537 14.501,6.76061 5.9289,5.3305 7.3998,8.2203 2.1413,4.20626 -5.4861,-4.18754 -20.4419,-8.26831 -25.9852,-7.09018 -1.0807,0.22969 -3.5667,0.60902 -5.5246,0.84303 -24.1387,2.88494 -43.13822,30.60944 -37.7528,55.08974 7.0444,32.02198 43.3979,47.55447 70.5385,30.13844 l 4.1697,-2.67574 -1.1614,-3.25379 c -1.2478,-3.49573 -1.6895,-17.66041 -0.5507,-17.66041 0.378,0 0.7788,1.19985 0.8906,2.66631 2.114,27.74482 32.5295,46.73682 56.1924,35.08762 z"
           id="path1756" /></g></g><g
       id="ship"
       transform="translate(300.62568,-16.548202)"><path
         style="display:inline;fill:#b9b9b9;stroke-width:0.578997"
         d="m 565.88756,604.9594 c -1.77223,-1.24146 -5.25218,-3.85778 -7.73322,-5.81406 -3.40205,-2.68247 -4.64214,-3.37477 -5.0445,-2.81616 -0.39383,0.54677 -0.45635,0.4967 -0.23878,-0.19122 0.19293,-0.61003 -0.63675,-1.70993 -2.40214,-3.18448 -1.48328,-1.23891 -4.47233,-3.92667 -6.64233,-5.9728 l -3.94546,-3.72022 5.71589,-5.83322 c 20.54822,-20.97 33.69363,-37.70604 33.84677,-43.09193 0.0415,-1.46012 3.69508,-5.35781 24.8206,-26.47904 l 24.77193,-24.7669 1.92014,1.55762 c 44.62187,36.19722 101.14405,-22.31332 61.92633,-64.11161 -3.31249,-2.76045 -5.23907,-3.14972 -0.66061,-1.25377 l 6.67426,-6.05746 5.76211,-5.78381 22.03423,22.02866 c 12.11882,12.11575 22.13638,21.66851 22.35977,21.44512 1.44707,-1.44708 -7.0606,16.66021 -12.15623,25.72443 -21.23041,37.76517 -69.04769,81.96642 -114.77547,108.3509 -10.7354,4.03749 -5.04814,1.41114 -11.61225,4.49373 -13.22647,6.41865 -22.82702,10.43982 -33.80527,14.63578 -3.93847,1.50531 -6.66444,2.57527 -7.24379,2.53175 -0.36868,-0.0277 -1.78115,-0.43684 -3.57198,-1.69131 z"
         id="path1202" /><path
         style="display:inline;fill:#30e5fa;stroke-width:0.600424"
         d="m 651.57967,485.23744 c -34.15796,-10.11458 -35.52718,-55.66926 -2.06214,-68.60896 29.30776,-11.33222 57.9943,21.78147 43.62824,50.36129 -7.67156,15.26178 -25.38643,23.03866 -41.5661,18.24767 z"
         id="path1200" /><path
         style="display:inline;fill:#ec9f16;stroke-width:0.578997"
         d="m 654.8785,495.71377 c -0.6369,-0.14807 -2.59101,-0.55902 -4.34248,-0.91321 -37.96696,-7.67793 -46.54573,-61.92108 -12.97212,-82.0222 38.48981,-23.04456 83.3862,17.87817 63.82447,58.17555 -8.10819,16.70295 -30.31523,28.52503 -46.50987,24.75986 z m 13.48609,-9.85001 c 26.56374,-5.40009 37.3939,-38.45247 19.14292,-58.42195 -22.02593,-24.09988 -61.86835,-8.81201 -61.86835,23.7394 0,22.60174 20.45863,39.20912 42.72543,34.68255 z M 467.46448,481.7435 c 0.41796,-0.16725 0.91735,-0.14669 1.10975,0.0457 0.19239,0.1924 -0.14958,0.32924 -0.75993,0.3041 -0.67451,-0.0278 -0.8117,-0.16498 -0.34982,-0.3498 z m 270.9343,-133.1572 c 0.39806,-0.16062 1.04944,-0.16062 1.4475,0 0.39806,0.16062 0.0724,0.29204 -0.72375,0.29204 -0.79612,0 -1.12181,-0.13142 -0.72375,-0.29204 z"
         id="path1198" /><path
         style="display:inline;fill:#d71a18;stroke-width:0.578997"
         d="m 602.26263,712.66021 c -32.50656,-103.6746 -1.1192,-1.7984 -32.78615,-105.95945 13.96428,-5.25688 28.78406,-11.28441 41.03213,-17.20343 14.41117,-7.01006 12.90606,-7.11804 14.82699,1.06373 9.15122,38.97776 4.54331,79.35489 -13.09537,114.7489 -4.31442,8.65737 -7.00255,10.63765 -9.9776,7.35025 z M 500.95132,611.43775 c -0.74641,-0.7464 0.89318,-4.45392 2.41625,-7.10718 4.51452,-7.30999 6.42703,-9.77474 10.6869,-15.09839 l 2.09139,-2.62673 -3.83839,-4.32123 c -13.80277,-15.53907 -13.77584,-16.02064 1.22923,-21.98269 l 3.40741,-1.35389 c 3.96528,4.79288 8.56369,9.69277 12.23113,13.56173 l 8.42594,-8.33104 c 47.98662,-47.44621 58.05147,-39.17336 11.57564,9.51466 l -9.18856,9.62592 c 4.77124,4.55989 8.49892,7.94903 13.22632,12.0239 l -1.93937,4.73778 c -5.56648,13.59864 -5.21238,13.62763 -23.33102,-1.91038 l -2.45,-2.10104 -3.62946,2.94715 c -4.90712,4.63018 -7.78527,6.50548 -13.47241,9.78126 -4.12215,2.37939 -6.76431,3.31687 -7.441,2.64017 z m -0.37546,-70.51359 c -4.24996,-1.34689 -48.57489,-14.84846 -83.08604,-25.30838 -24.84984,-7.5317 -26.00742,-9.51285 -10.0347,-17.17396 36.05704,-17.2943 75.22919,-21.47326 114.10937,-12.1734 4.06022,0.97118 7.38221,2.00554 7.38221,2.2986 0,0.29305 -2.17701,4.89412 -4.8378,10.22459 -5.77291,11.56511 -11.39291,24.70126 -15.23025,35.59909 -1.54128,4.37714 -3.06287,7.94746 -3.38132,7.93405 -0.31844,-0.0134 -2.53311,-0.64368 -4.92147,-1.40059 z M 704.68187,407.45809 c -24.18005,-24.18162 -43.83592,-44.09439 -43.67971,-44.25059 1.49574,-1.49575 21.49794,-7.82629 30.06868,-9.51651 22.18338,-4.37474 70.74806,-7.17201 72.35597,-4.16763 2.02499,3.78374 -1.47121,54.26482 -4.9541,71.5315 -1.82806,9.06272 -7.87908,28.26398 -9.43813,29.94932 -0.21394,0.23127 -20.17266,-19.36447 -44.35271,-43.54609 z"
         id="path1196" /><path
         style="display:inline;opacity:1;fill:#ffffff;fill-opacity:1;stroke:#000000;stroke-width:0;stroke-linecap:round;stroke-linejoin:round;stroke-miterlimit:12.2;stroke-dasharray:none;stroke-opacity:1;paint-order:markers stroke fill"
         d="m 510.9458,552.75566 c 2.85069,3.85298 8.02198,10.07206 11.49185,13.82018 l 6.30876,6.81477 8.93307,-8.61806 c 17.48508,-16.8686 31.76797,-28.12573 39.15159,-30.85754 3.17733,-1.17555 7.05764,-4.7102 28.15837,-25.65017 l 24.47315,-24.28676 -3.29732,-4.62317 c -6.43432,-9.02148 -9.31495,-17.6261 -9.31023,-27.81033 0.009,-20.4112 14.59705,-39.24281 34.38746,-44.39171 5.66343,-1.47347 15.53463,-1.46138 21.29715,0.026 5.86552,1.51402 13.19039,5.3823 17.81119,9.40609 l 3.66928,3.19527 5.78979,-6.14813 5.78979,-6.14816 -21.54657,-21.93769 c -11.85063,-12.06576 -22.03184,-22.05085 -22.62492,-22.18916 -1.82567,-0.42587 -25.93317,11.99106 -34.87008,17.96014 -27.9505,18.66851 -59.54486,50.82311 -83.33691,84.81472 -8.65721,12.36853 -14.55438,21.90386 -16.40406,26.52429 -0.8118,2.02789 -4.36233,10.15794 -7.88998,18.06671 -7.89334,17.69628 -13.22943,31.1987 -13.19239,33.38177 0.0155,0.90501 2.36033,4.79792 5.21102,8.6509 z"
         id="path4319" /><g
         id="fire"
         transform="translate(9.41651,-8.135503)"
         style="display:inline"><path
           style="display:inline;fill:#fbeb21;stroke-width:0.576758"
           d="m 440.15418,670.32557 c 0.20035,-0.57587 2.0512,-4.55084 4.113,-8.83327 4.36884,-9.0742 5.04077,-12.84779 3.33347,-18.7207 l -0.97391,-3.35014 1.91296,-2.00643 c 2.53397,-2.65778 10.42131,-9.23925 13.99249,-11.6758 6.69341,-4.56681 9.58478,-9.44229 10.01586,-16.88894 0.30131,-5.20495 0.21412,-5.12032 7.60766,-7.38407 5.59269,-1.71237 14.78786,-1.88091 19.75397,-0.36207 3.90238,1.1935 5.94758,1.21558 3.70249,5.01749 -3.72263,6.30406 -3.45367,6.96306 2.4979,3.01532 5.43509,-3.60516 3.3043,-0.53238 4.35507,3.41542 1.68948,6.34747 1.67249,16.12784 -1.82094,22.80022 l -1.67867,3.20624 -4.32097,0.0998 c -7.57062,0.17481 -11.69128,2.71427 -17.82807,10.98701 -4.26623,5.75111 -9.01732,11.21915 -11.73533,13.5062 l -1.64682,1.38571 -3.65505,-0.57705 c -5.75112,-0.90798 -8.68328,-1.5147 -17.72175,2.87901 -9.39061,4.56489 -10.40263,4.92113 -9.90336,3.48608 z"
           id="fire3" /><path
           style="display:inline;fill:#f6921e;stroke-width:0.576758"
           d="m 435.91948,651.59923 c -2.47306,-5.4028 -7.7384,-11.2169 -0.86939,-14.66204 6.70763,-7.11508 16.89323,-14.04527 23.7188,-21.03541 2.23805,-5.40433 -9.38068,-13.51298 5.26397,-15.79056 12.12783,-5.66442 26.92538,-7.3637 40.0653,-5.29239 4.86451,1.76365 -0.7972,16.63987 -3.66545,9.0714 -6.06196,-2.76452 -13.2249,-2.67316 -19.60382,-2.38265 -5.92313,3.13457 -7.8033,6.6434 -8.32406,12.2602 -1.77341,6.4527 -6.76432,11.55394 -12.21234,14.97636 -3.77335,4.51679 -14.52326,7.78908 -11.77065,14.52041 2.01757,7.8231 -1.1565,15.40489 -5.22606,21.94948 -2.77336,3.33279 -1.1634,6.10124 2.67953,2.76108 6.56995,-2.97513 13.01286,-6.702 20.58698,-4.87604 7.03255,3.73206 10.7074,-6.23638 14.77831,-10.36661 4.63955,-6.02142 9.29458,-14.14397 17.63877,-14.91326 6.6993,1.84822 11.53913,-3.77014 11.39955,-9.61413 1.37098,-6.45934 -1.13129,-14.81158 -0.66682,-20.99732 6.94666,-6.54018 7.67983,9.44193 7.82445,14.05913 0.58593,11.30938 -2.58691,24.49089 -9.43243,33.62348 -5.62371,-1.91755 -13.33463,-4.57103 -16.59532,2.1458 -5.76363,6.9026 -12.89493,15.02986 -19.86202,20.80602 -2.54965,4.00525 -5.57434,2.16862 -8.02741,-1.60001 -7.45791,-1.40467 -13.52039,3.31296 -19.94828,5.54799 -6.83159,3.0537 -13.8808,5.85234 -21.31976,6.97781 2.31279,-13.6506 10.19606,-25.99627 13.56815,-37.16874 z"
           id="fire2" /><path
           style="display:inline;fill:#f10b07;stroke-width:0.576758"
           d="m 408.6377,701.50059 c 0.81118,-14.30453 5.95498,-28.02656 12.11392,-40.83447 2.4588,-3.0226 3.24322,-8.0577 -2.18294,-6.66285 -6.31427,-1.51265 -0.34492,-9.42283 1.82,-12.72432 7.01517,-10.00196 16.52488,-17.82873 26.08464,-25.25606 2.88651,-5.00006 -12.82638,-5.14643 -5.83519,-10.34715 16.10599,-14.17811 39.74572,-21.85654 60.59701,-14.54174 2.83986,2.14097 8.83926,2.00984 9.81138,5.03594 -3.00216,0.1412 -4.8155,7.4097 -6.18291,6.39965 3.14259,-6.33984 -4.61492,-8.39851 -8.73194,-8.21273 -13.25269,-0.57199 -27.18352,1.80902 -38.36843,9.26669 1.72321,4.43663 4.36305,11.02518 -1.12405,15.05078 -6.28187,5.8822 -13.55594,10.68753 -19.33276,17.14443 -1.54929,2.36234 -6.01234,5.20499 -5.09964,7.90556 3.15115,3.10659 4.78059,7.73673 2.6229,11.93271 -4.58286,10.8477 -10.1448,21.46589 -12.47834,33.11089 12.11202,-1.76626 22.83221,-8.10528 34.03231,-12.58054 4.77581,-3.12354 9.46458,1.28252 12.19041,2.88457 9.00413,-6.62732 15.91001,-14.72374 22.80697,-23.40828 3.13195,-4.54912 9.34949,-6.39051 13.83066,-2.58005 3.25461,2.75026 4.7155,-4.31979 6.47515,-6.11279 5.713,-12.23105 6.4933,-28.76056 1.27025,-41.46317 -0.98099,-2.52 -7.16219,4.27912 -2.77323,0.69708 2.92665,-3.29613 7.28818,-4.75512 9.0284,1.39187 8.13069,18.23693 2.65474,39.73375 -8.21616,55.61147 -2.46496,2.75709 -6.98436,13.72983 -10.52432,6.56394 -1.04724,-5.26512 -5.91033,-7.39531 -8.17312,-1.57813 -8.68661,11.96611 -19.81909,22.89745 -33.65066,28.60889 -3.15784,-1.45873 0.62821,-11.56327 -5.58013,-7.59539 -12.64683,6.38113 -26.16799,11.56052 -40.27259,13.4129 -1.27734,-0.0735 -3.62678,0.50147 -4.15759,-1.1197 z"
           id="fire1" /></g></g>
		 </g></svg>
