<?xml version="1.0" encoding="UTF-8" standalone="no"?>
<!-- Created with Inkscape (http://www.inkscape.org/) -->

<svg
   width="510.37491mm"
   height="100.27897mm"
   viewBox="0 0 510.37491 100.27897"
   version="1.1"
   id="svg1120"
   xml:space="preserve"
   xmlns:xlink="http://www.w3.org/1999/xlink"
   xmlns="http://www.w3.org/2000/svg"
   xmlns:svg="http://www.w3.org/2000/svg">
   
   
   
   
   
   
   
      
     <style>
		
			#cloud1 { animation: cloud1 55s  linear;  }		
			#cloud2 { animation: cloud2 30s  linear;  }		
			#cloud3 { animation: cloud3 92s  linear;  }			
			
			@keyframes cloud1 {
			    0% {      transform: translate(-100px, 0) }  		
			    100% {    transform: translate(-650px,0px) }  
			}			
			
			@keyframes cloud2 {
			    0% {      transform: translate(-200px, 0) }  		
			    100% {    transform: translate(-650px,0px) }  
			}	
						
			@keyframes cloud3 {
			    0% {      transform: translate(0px, 0) }  		
			    100% {    transform: translate(-650px,0px) }  
			}		
				
				
				
	
			[id*=tree]{
				animation: tree 7s  infinite linear ; 				
				animation-fill-mode: forwards;
				
		        transform: rotate(0deg); 
		        transform-origin: 81px 71px;
		        transform-origin: 500px 85px;
			}

			#tree2{
				animation-delay: 1s;
			}


			@keyframes tree {
			  0% {  transform: rotate(0deg); }
			  50% {     transform: rotate(-5deg);  }
			   68% {     transform: rotate(1deg);  }
			  75% {     transform: rotate(0deg);  }
			  100% {     transform: rotate(0deg);  }
			}		  
	

				
			

	 </style>       
   
       
   
   
   <defs
     id="defs1117"><linearGradient
       id="linearGradient60477"><stop
         style="stop-color:#dbbd4b;stop-opacity:1;"
         offset="0"
         id="stop60473" /><stop
         style="stop-color:#7e4961;stop-opacity:1;"
         offset="0.34546342"
         id="stop64125" /><stop
         style="stop-color:#623b66;stop-opacity:1;"
         offset="0.73313892"
         id="stop66887" /><stop
         style="stop-color:#462e6c;stop-opacity:1;"
         offset="1"
         id="stop60475" /></linearGradient><linearGradient
       id="linearGradient22191"><stop
         style="stop-color:#f2b328;stop-opacity:1;"
         offset="0.06001521"
         id="stop30587" /><stop
         style="stop-color:#ec6f02;stop-opacity:1;"
         offset="0.24040057"
         id="stop34391" /><stop
         style="stop-color:#b7191e;stop-opacity:1;"
         offset="0.83151972"
         id="stop53161" /><stop
         style="stop-color:#af1a20;stop-opacity:1;"
         offset="0.94174868"
         id="stop46366" /><stop
         style="stop-color:#9f1c24;stop-opacity:1;"
         offset="1"
         id="stop22189" /></linearGradient><radialGradient
       xlink:href="#linearGradient22191"
       id="radialGradient31764"
       cx="307.24319"
       cy="50.34988"
       fx="307.24319"
       fy="50.34988"
       r="255.93211"
       gradientTransform="matrix(0.80354265,0.00774249,-0.0090135,0.82010928,128.6823,8.0431248)"
       gradientUnits="userSpaceOnUse" /><radialGradient
       xlink:href="#linearGradient60477"
       id="radialGradient60481"
       cx="334.186"
       cy="-175.95187"
       fx="334.186"
       fy="-175.95187"
       r="255.4054"
       gradientTransform="matrix(0.50627149,-0.00110927,0.00127477,0.40392454,206.94798,126.1853)"
       gradientUnits="userSpaceOnUse"
       spreadMethod="pad" /></defs><g
     id="layer2"
     style="stroke:none"
     transform="matrix(-1,0,0,1,588.82086,0.05722979)"><rect
       style="display:inline;fill:url(#radialGradient31764);fill-opacity:1;stroke:none;stroke-width:1.97705;stroke-linecap:round;stroke-linejoin:round;stroke-miterlimit:12.2;stroke-dasharray:11.8623, 3.9541;stroke-dashoffset:9.88526;paint-order:markers stroke fill"
       id="rect2594"
       width="510.1665"
       height="100.00858"
       x="78.445953"
       y="-0.057229795"
       ry="0" /><ellipse
       style="display:inline;fill:#fffada;fill-opacity:1;stroke:none;stroke-width:2;stroke-linecap:round;stroke-linejoin:round;stroke-miterlimit:12.2;stroke-dasharray:none;stroke-dashoffset:10;stroke-opacity:1;paint-order:markers stroke fill"
       id="path53767"
       cx="373.91101"
       cy="53.682003"
       rx="11.075597"
       ry="11.093931" /><rect
       style="fill:url(#radialGradient60481);fill-opacity:1;stroke:none;stroke-width:1.9452;stroke-linecap:round;stroke-linejoin:round;stroke-miterlimit:12.2;stroke-dasharray:none;stroke-dashoffset:37.7953;stroke-opacity:1;paint-order:markers stroke fill"
       id="rect57325"
       width="510.36163"
       height="45.517673"
       x="78.459229"
       y="54.704067" /><g
       id="clouds"
       style="stroke:none"
       transform="translate(3.6119779,3.6119779)"><path
         id="cloud3"
         style="display:inline;opacity:0.850123;fill:#fdfdfd;fill-opacity:1;stroke:none;stroke-width:0.1;stroke-dasharray:none"
         d="m 560.54274,-1.300488 c -2.21335,-0.936331 -5.1281,-1.383628 -7.92466,-1.037697 -2.51784,0.31145 -4.96452,1.202844 -6.24298,2.40201502 -0.33637,0.315502 -1.71033,1.50506678 -1.61962,1.83474578 -1.43062,0.01004 -3.38954,-1.60870978 -8.86096,-0.364328 -6.12243,1.805127 -3.76475,3.2957681 -4.82917,4.0844641 -2.12956,-0.638461 -5.43797,-0.81849 -7.6344,-0.447219 -4.04188,0.683103 -6.43774,2.8075822 -5.89345,4.9725711 0.70175,2.790529 6.80257,4.68241 11.83898,3.545982 0.82841,-0.186909 1.77266,-0.474431 2.66116,-0.707972 0.91192,0.659172 2.42803,1.361491 4.00503,1.615664 2.15661,0.347721 4.37897,0.07593 6.10949,-0.661716 0.56013,-0.238722 1.12153,-0.530578 1.78199,-0.663307 1.66148,0.839685 3.13297,1.256157 5.44092,1.446174 2.01751,0.166088 4.09376,-0.162414 6.39594,-0.278101 2.85368,0.752814 5.09982,0.865958 6.93645,0.582392 1.44926,-0.223744 2.89691,-0.622807 3.93053,-1.208686 0.43132,-0.244563 0.89255,-0.721349 1.4817,-0.775424 0.61238,-0.05625 1.02172,0.20396 1.6143,0.372874 1.34963,0.384651 2.79511,0.575516 4.32402,0.661621 5.15116,0.290066 9.53914,-2.008227 10.4843,-4.4947479 0.74661,-1.964044 -1.37054,-4.1922452 -4.53878,-5.2530253 -1.726,-0.577871 -4.63553,-0.864075 -6.12569,-0.870481 -0.14071,-0.901005 -1.48746,-2.448649 -3.43022,-3.17065778 -2.26397,-0.841274 -6.1718,-1.123993 -8.10942,-0.495437 -0.4532,-0.412537 -0.98794,-0.748107 -1.79546,-1.08970402 z" /><path
         id="cloud2"
         style="display:inline;opacity:0.85258;fill:#fdfdfd;fill-opacity:1;stroke:none;stroke-width:0.1;stroke-dasharray:none"
         d="m 507.84792,18.034561 c 3.86206,-0.715414 8.94798,-1.057175 13.82767,-0.792863 4.39335,0.237967 8.66252,0.919045 10.89331,1.835284 0.58693,0.241062 2.98433,1.149963 2.82605,1.401857 2.49627,0.0077 5.91438,-1.229152 15.46139,-0.278368 10.68298,1.379226 6.56909,2.518166 8.42638,3.120777 3.71585,-0.487822 9.48867,-0.625375 13.32118,-0.341702 7.05263,0.521932 11.23315,2.145162 10.28343,3.799345 -1.22448,2.132133 -11.86976,3.577645 -20.65772,2.709344 -1.44548,-0.142809 -3.09311,-0.362493 -4.64343,-0.540933 -1.5912,0.503648 -4.23664,1.040262 -6.98835,1.234465 -3.76303,0.26568 -7.64081,0.05802 -10.66036,-0.505591 -0.97739,-0.182398 -1.95696,-0.405394 -3.1094,-0.506806 -2.89909,0.64157 -5.46668,0.959779 -9.49378,1.104964 -3.52035,0.126901 -7.14317,-0.124094 -11.16022,-0.212486 -4.97934,0.575195 -8.89862,0.661644 -12.10334,0.444983 -2.5288,-0.170954 -5.05479,-0.475863 -6.85834,-0.923509 -0.75261,-0.186862 -1.5574,-0.551155 -2.5854,-0.592472 -1.06856,-0.04297 -1.78281,0.155838 -2.81677,0.284899 -2.35497,0.293896 -4.87718,0.439729 -7.54494,0.505519 -8.98822,0.221628 -16.64475,-1.534408 -18.29396,-3.43426 -1.30276,-1.500648 2.39143,-3.203129 7.91967,-4.013629 3.01169,-0.441528 8.08849,-0.660205 10.68866,-0.6651 0.24553,-0.688422 2.59546,-1.870916 5.98533,-2.422575 3.95041,-0.642784 10.76914,-0.858798 14.15006,-0.378543 0.7908,-0.315204 1.72386,-0.571599 3.13288,-0.8326 z" /><path
         id="cloud1"
         style="display:inline;opacity:0.874693;fill:#fdfdfd;fill-opacity:1;stroke:none;stroke-width:0.1;stroke-dasharray:none"
         d="m 543.0343,27.050884 c 2.13496,-0.834067 4.94646,-1.23251 7.64396,-0.924361 2.42865,0.277434 4.78865,1.07147 6.02184,2.13967 0.32446,0.281043 1.64975,1.340686 1.56224,1.634358 1.37995,0.0089 3.26948,-1.43301 8.54709,-0.324537 5.90556,1.607974 3.6314,2.935811 4.65811,3.638365 2.05413,-0.568729 5.24535,-0.729095 7.36397,-0.398374 3.89871,0.608496 6.20971,2.500942 5.6847,4.429476 -0.67689,2.485752 -6.56162,4.171005 -11.41962,3.158695 -0.79907,-0.166494 -1.70987,-0.422614 -2.5669,-0.630648 -0.87961,0.587178 -2.34202,1.212791 -3.86316,1.439204 -2.08022,0.309743 -4.22386,0.06764 -5.89307,-0.589445 -0.5403,-0.212649 -1.08182,-0.472629 -1.71888,-0.590861 -1.60263,0.747976 -3.02199,1.118961 -5.24819,1.288225 -1.94604,0.147948 -3.94875,-0.144675 -6.16938,-0.247728 -2.75259,0.670594 -4.91917,0.771379 -6.69074,0.518784 -1.39793,-0.199306 -2.7943,-0.554785 -3.79131,-1.076674 -0.41604,-0.217853 -0.86093,-0.642565 -1.42921,-0.690735 -0.5907,-0.0501 -0.98554,0.181684 -1.55712,0.332151 -1.30183,0.342639 -2.69611,0.512658 -4.17085,0.58936 -4.9687,0.258385 -9.20125,-1.788893 -10.11293,-4.00384 -0.72017,-1.749534 1.32199,-3.734375 4.37801,-4.679299 1.66486,-0.514757 4.47132,-0.769702 5.9087,-0.775409 0.13573,-0.802598 1.43478,-2.181211 3.30871,-2.824363 2.18379,-0.749391 5.95319,-1.001232 7.82217,-0.441326 0.43716,-0.367481 0.95295,-0.6664 1.73186,-0.970688 z" /></g><g
       id="layer4"
       transform="matrix(0.94006942,0,0,0.95336731,100.94657,2.9944015)"><path
         style="fill:#000000;stroke:none;stroke-width:0.171298"
         d="m 482.8418,94.073059 c -4.9189,-8.941194 -7.81203,-13.068367 -14.63362,-20.875696 -4.75313,-5.439957 -12.18257,-13.120069 -10.02071,-10.358855 0.23286,0.297377 1.73476,2.736347 3.33759,5.419909 2.42664,4.062806 2.6502,4.469781 1.33596,2.432366 -1.59591,-2.474103 -2.22952,-3.323585 -1.53737,-2.061105 0.96648,1.762746 0.97075,2.198408 0.006,0.585655 -1.05252,-1.758992 -1.21093,-1.664591 -0.32424,0.193266 0.49141,1.029619 1.03995,2.766843 0.85057,2.694146 -0.0415,-0.01593 -0.21083,-0.459043 -0.37604,-0.984746 -0.47558,-1.509794 -0.57194,-1.351204 -0.34964,0.574874 0.19272,1.670791 0.12289,2.448401 -0.0992,1.105636 -0.38957,-2.355152 -1.36172,-5.279569 -1.25141,-3.764331 0.065,0.886084 -0.0214,2.72446 -0.11024,2.358774 -0.0277,-0.111311 -0.18838,-1.00553 -0.35849,-1.986749 -0.31106,-1.794293 -0.67644,-2.891367 -0.54892,-1.647859 0.0874,0.852084 0.0134,1.210096 -0.3439,1.66257 -0.28996,0.367184 -0.28996,0.367184 -0.3031,-0.438718 -0.0289,-1.769233 -0.95477,-4.666911 -1.11158,-3.478597 -0.0455,0.345048 -0.10065,0.59436 -0.1225,0.554023 -0.022,-0.04034 -0.26288,-0.719212 -0.53555,-1.508623 -0.5658,-1.638724 -0.72271,-1.962548 -0.81589,-1.685838 -0.0627,0.186304 -0.11572,0.07754 -0.60811,-1.247687 -0.12669,-0.340318 -0.14212,-0.32148 -0.1626,0.194412 -0.0238,0.607359 -0.15219,0.515919 -0.34838,-0.248141 -0.2654,-1.033627 -1.02642,-2.497566 -1.02789,-1.977173 -7.9e-4,0.308383 -0.0319,0.363432 -0.0897,0.158504 -0.16132,-0.571579 -1.311,-2.871877 -1.40467,-2.808922 -0.0506,0.03391 0.12606,0.52544 0.39215,1.092295 1.81007,3.85607 3.70836,8.803175 5.07152,13.21571 0.86486,2.799851 0.79517,2.911769 -0.16274,0.261393 -0.85441,-2.364116 -1.11883,-2.85694 -0.75099,-1.399556 0.33197,1.314504 0.21523,1.353189 -0.19087,0.06326 -0.44272,-1.40744 -0.77344,-1.84191 -0.53896,-0.709257 0.23519,1.135328 0.42129,3.073817 0.29073,3.023655 -0.0522,-0.02006 -0.12937,-0.370115 -0.17143,-0.777875 -0.12135,-1.170598 -0.21318,-1.104397 -0.48705,0.35127 -0.38238,2.032064 -0.43263,1.940593 -0.37536,-0.682295 0.0519,-2.365537 -0.11849,-3.707631 -0.29779,-2.345957 -0.26521,2.014164 -0.76665,2.226395 -0.61406,0.25988 0.14867,-1.916035 0.0255,-2.650198 -0.21975,-1.309262 -0.12987,0.710192 -0.68361,1.291029 -1.01745,1.067226 -0.0965,-0.06478 -0.1183,-0.1563 -0.0484,-0.203367 0.22489,-0.151233 0.41184,-1.776844 0.32171,-2.79758 -0.10411,-1.179176 -0.20175,-1.399602 -0.4024,-0.910501 -0.22768,0.554508 -0.39498,0.352504 -0.41,-0.495112 -0.0269,-1.521151 -0.38538,-2.877996 -0.48955,-1.852975 -0.0384,0.377667 -0.0589,0.380059 -0.26257,0.03054 -0.33496,-0.575045 -0.29489,-0.211699 0.16503,1.495598 0.32358,1.200995 0.34864,1.44016 0.11114,1.053112 -0.35158,-0.572327 -0.35564,0.254509 -0.004,0.879864 0.0989,0.176557 0.0772,0.304273 -0.0553,0.319517 -0.15869,0.01821 -0.0764,0.470371 0.29303,1.610032 0.50171,1.547963 0.50362,1.575686 0.0806,1.196172 -0.4327,-0.388538 -0.4327,-0.388538 -0.28402,0.218957 0.28582,1.169115 0.71032,1.940611 1.02117,1.857336 0.2213,-0.05933 0.22034,-0.02925 -0.005,0.143721 -0.2721,0.209127 -0.2584,0.255239 0.31324,1.05477 0.58361,0.816194 0.11034,0.914241 -0.72627,0.150388 -0.41341,-0.377457 -0.15933,0.514888 0.46118,1.619587 0.70387,1.253194 -0.17659,0.430933 -1.1011,-1.028246 -0.55852,-0.881624 -0.17653,0.455007 0.59808,2.092449 0.65274,1.379851 0.45259,1.493751 -0.31363,0.178486 -0.70008,-1.201775 -0.85667,-1.085329 -0.36396,0.270646 0.19186,0.526987 0.30149,0.940302 0.24387,0.918334 -0.10106,-0.03885 -0.79211,-1.907801 -0.96991,-2.623506 -0.0617,-0.247179 -0.14814,-0.313089 -0.28784,-0.219133 -0.10997,0.07397 -0.16404,0.196131 -0.12012,0.271517 0.0442,0.0752 0.0773,0.34464 0.075,0.59826 -0.005,0.481544 -0.0553,0.382432 -0.29301,-0.583259 -0.17049,-0.692174 -0.23364,0.299853 -0.11492,1.806834 0.14466,1.836514 -0.0178,1.837626 -0.21336,0.0014 -0.0807,-0.758628 -0.21328,-1.894556 -0.29448,-2.524302 -0.13335,-1.035373 -0.34222,-3.919062 -0.34879,-4.815805 -0.0249,-3.409361 0.0731,-7.159613 0.24183,-9.253965 0.23289,-2.890635 0.18511,-3.068593 -0.53273,-1.984687 -1.13928,1.720238 -1.49385,4.217557 -0.77421,5.452845 0.31737,0.544842 -0.0891,0.384087 -0.65156,-0.25763 -1.02113,-1.165115 -0.98537,-0.501847 0.0736,1.365411 0.65122,1.148194 -0.45943,0.307063 -1.19579,-0.905628 -1.25086,-2.060026 -0.29565,0.41585 1.35446,3.510854 1.31363,2.463846 0.73993,1.919446 -1.41822,-1.345605 -1.50832,-2.281902 -1.42395,-1.329549 0.15959,1.80206 0.89596,1.771864 0.11138,1.020733 -1.54015,-1.47437 -1.64252,-2.481562 -0.88158,-0.258003 1.10202,3.220066 1.16475,2.042281 0.62533,1.566208 -0.64454,-0.568838 -0.34429,-0.579123 -0.67962,-1.016888 -0.74496,-0.972956 -0.1515,0.101906 0.30518,1.260159 0.87246,2.212224 0.41448,0.695765 0.41671,0.719788 0.0411,0.444079 -0.21846,-0.160319 -0.48582,-0.438838 -0.59411,-0.618936 -0.63126,-1.049831 0.19119,1.522721 0.85324,2.668642 0.23903,0.413344 0.24988,0.502096 0.045,0.370633 -0.14775,-0.0952 -0.39169,-0.382176 -0.54203,-0.637761 -0.15059,-0.25543 -0.32139,-0.432392 -0.38007,-0.392943 -0.11081,0.0745 0.66484,1.778092 1.32732,2.915217 0.20923,0.359091 0.32438,0.690572 0.25557,0.736726 -0.0685,0.04597 -0.23548,-0.106956 -0.37123,-0.339936 -0.1358,-0.232954 -0.30276,-0.385963 -0.37119,-0.339944 -0.0685,0.04597 0.009,0.312441 0.17167,0.592016 0.76491,1.312948 -0.44546,0.553433 -1.62503,-1.019774 -0.4822,-0.643074 -0.91629,-1.184447 -0.96468,-1.203042 -0.18495,-0.0711 0.47874,1.33639 0.85245,1.807549 0.34798,0.438827 0.35261,0.467927 0.0414,0.258689 -0.68579,-0.460812 -2.08626,-3.121656 -2.42496,-4.607224 -0.46151,-2.024062 -0.61459,-1.729915 -0.65353,1.255092 -0.0124,0.949921 -0.0124,0.949921 -0.29445,-0.111566 -0.28965,-1.089964 -0.32479,-2.155055 -0.15514,-4.696181 0.0972,-1.45564 0.0972,-1.45564 -0.53784,-2.350011 -1.25511,-1.767551 -1.46108,-1.375521 -0.43109,0.820462 0.61952,1.320888 0.48597,1.535448 -0.21129,0.339007 -0.61684,-1.05889 -0.71002,-0.896282 -0.45632,0.796367 0.0964,0.642684 0.0964,0.642684 -0.17008,0.197277 -0.14689,-0.244727 -0.35045,-0.983404 -0.45266,-1.641128 -0.10253,-0.657629 -0.20421,-1.183623 -0.22618,-1.16887 -0.022,0.0147 -0.1921,0.417802 -0.37813,0.895648 -0.40065,1.029161 -0.57453,0.310873 -0.31251,-1.28991 0.13295,-0.811482 -1.30781,-0.593246 -1.81296,0.274597 -0.0723,0.124248 -0.17517,0.150937 -0.22856,0.05932 -0.17794,-0.305416 0.29124,-1.306403 0.95158,-2.030174 1.29091,-1.414916 0.89581,-1.604315 -0.61865,-0.29655 -0.77055,0.665393 -0.83454,0.653253 -0.43803,-0.08307 0.29368,-0.545332 0.0226,-1.512266 -0.3613,-1.289545 -0.0889,0.05164 -0.076,-0.05983 0.0289,-0.247656 0.10487,-0.187821 0.12261,-0.458327 0.0395,-0.601122 -0.20273,-0.347992 -0.67432,-0.01281 -0.75575,0.537136 -0.0438,0.295798 -0.10338,0.366145 -0.18763,0.221517 -0.16427,-0.282024 -0.29588,-1.465732 -0.17236,-1.548863 0.0535,-0.036 0.0531,-0.141875 -0.001,-0.23505 -0.14428,-0.247795 -0.50183,0.05195 -0.74447,0.624181 -0.1163,0.274277 -0.25332,0.482598 -0.30448,0.462928 -0.19051,-0.07322 0.25195,-1.458806 0.6396,-2.002984 0.22095,-0.310181 0.32514,-0.615337 0.2315,-0.678101 -0.17329,-0.11617 -0.95447,0.541192 -1.26438,1.063948 -0.15028,0.253508 -0.17024,0.240825 -0.16663,-0.105842 0.008,-0.726398 0.88409,-2.378071 1.71101,-3.22405 1.0363,-1.060176 0.73835,-1.238288 -0.584,-0.349094 -1.60333,1.078128 -0.96207,-0.07578 0.75267,-1.354375 1.06981,-0.797709 1.2533,-0.99422 1.03104,-1.104274 -0.21981,-0.108833 -0.18036,-0.169878 0.21085,-0.326341 0.54385,-0.217505 0.82888,-0.76818 1.03764,-2.004669 0.16124,-0.954922 0.036,-0.919797 -0.66983,0.187852 -0.673,1.056113 -1.67235,1.80477 -1.32613,0.99345 0.43779,-1.025858 0.30788,-1.045387 -0.85401,-0.128316 -1.12694,0.889489 -1.12694,0.889489 -0.30277,-0.222484 1.61226,-2.175318 1.56242,-2.231146 -0.74777,-0.83765 -3.26886,1.971769 -3.92177,1.833095 -1.13167,-0.24035 2.47467,-1.839036 2.60966,-2.05776 1.05095,-1.703035 -0.64783,0.147415 -1.29952,0.217607 -1.44823,0.155923 -0.21277,-0.08825 -0.20297,-0.126445 0.046,-0.179315 0.17397,-0.03696 0.93451,-0.379064 1.69001,-0.76024 1.80128,-0.908818 4.51423,-0.899622 7.42267,0.02517 0.45026,0.143165 1.02843,0.18568 1.28483,0.09448 0.50763,-0.180568 0.49157,-0.401299 -0.0393,-0.548014 -0.18573,-0.05127 -0.61309,-0.334025 -0.94967,-0.628336 -0.72958,-0.63792 -1.11833,-0.771789 -2.27306,-0.782714 -0.94163,-0.0089 -0.93484,-0.05152 0.16637,-1.041938 0.28847,-0.259449 -1.96985,-0.743493 -2.33213,-0.499881 -0.0807,0.05428 -0.19017,0.02441 -0.24312,-0.06645 -0.0543,-0.09192 0.10593,-0.244766 0.36161,-0.345367 0.59684,-0.234878 0.12591,-0.311965 -1.19644,-0.195909 -0.49836,0.04377 -0.96161,-0.01571 -1.02941,-0.132127 -0.0681,-0.116286 -0.55685,-0.223596 -1.08672,-0.2382 -1.16732,-0.03216 -1.20406,-0.0433 -0.7175,-0.217414 0.23363,-0.08367 0.31633,-0.183281 0.21075,-0.254081 -0.24001,-0.160976 -2.33584,-0.143887 -2.63841,0.02148 -0.13562,0.07414 -0.0781,-0.04416 0.12787,-0.262854 0.46492,-0.49367 -0.417,-0.676725 -1.93355,-0.401353 -0.57512,0.104422 -0.71706,0.09068 -0.40095,-0.03886 2.21562,-0.907958 6.83615,-0.697183 10.0843,0.460009 0.89653,0.319394 0.927,0.314585 1.53291,-0.241681 1.03663,-0.951724 1.02143,-1.064589 -0.1413,-1.048728 -0.95759,0.01306 -1.35978,-0.216722 -0.90939,-0.51958 0.3068,-0.206307 0.0292,-0.420251 -0.49011,-0.377896 -0.55034,0.0449 -0.71723,-0.102647 -0.51301,-0.453522 0.19007,-0.326537 -0.11173,-0.476795 -0.62802,-0.312652 -0.64249,0.204264 -0.69845,-0.118158 -0.0927,-0.534132 0.62625,-0.430078 0.2042,-0.636683 -0.8433,-0.412889 -0.31924,0.06821 -0.61786,0.05985 -0.66355,-0.01861 -0.11285,-0.193188 0.42816,-0.538828 0.93829,-0.599441 0.67452,-0.08017 0.34515,-0.314671 -1.46034,-1.039833 -1.98139,-0.795789 -1.99309,-0.804865 -1.02707,-0.796907 1.18504,0.0098 1.96087,0.243864 3.54686,1.070271 2.66873,1.390545 4.58802,3.104001 7.64699,6.826824 0.74887,0.911374 0.74887,0.911374 -0.0132,-1.207428 -1.17061,-3.254959 -1.73967,-6.016515 -1.79485,-8.711068 -0.0306,-1.489173 9.4e-4,-1.540687 0.24279,-0.397375 0.2897,1.367898 0.95885,2.777135 0.81073,1.7064 -0.11114,-0.80525 0.0476,-1.986241 0.25661,-1.905899 0.0636,0.02446 0.1001,0.293152 0.0818,0.596822 -0.0374,0.611993 0.13521,1.804668 0.3043,2.093335 0.0595,0.102228 0.1849,-0.184251 0.27853,-0.636581 0.19921,-0.962184 0.72191,-2.000949 0.99146,-1.970345 0.10361,0.01174 0.0429,0.347882 -0.13526,0.746965 -0.29369,0.658484 -0.29213,0.710932 0.017,0.567081 0.70867,-0.329796 0.81392,-0.243331 0.49188,0.404255 -0.76573,1.539808 -0.33733,1.932426 0.65741,0.602497 0.32499,-0.43449 0.34948,0.08575 0.0338,0.718068 -0.5891,1.180051 -0.48326,1.625129 0.26649,1.120949 0.34956,-0.235061 0.82272,-0.434531 1.05146,-0.443244 0.34695,-0.01323 0.48405,-0.164961 0.82695,-0.915218 0.54213,-1.186151 1.97502,-2.500253 3.50284,-3.212509 2.03312,-0.947815 2.23059,-0.784968 0.37581,0.309849 -1.02817,0.606897 -1.73897,1.122105 -1.81354,1.314501 -0.0908,0.234149 0.1767,0.142836 1.02873,-0.35121 1.25273,-0.72638 2.5577,-0.876636 3.37587,-0.388734 0.54652,0.325915 0.5097,0.399485 -0.22859,0.456835 -1.15198,0.08948 -1.36962,0.563965 -0.31818,0.693599 0.76551,0.09438 2.34034,0.860414 2.56632,1.248296 0.0418,0.07034 -0.14804,0.179749 -0.42049,0.242306 -0.85212,0.195676 -0.86505,0.316843 -0.0759,0.710786 0.87406,0.436321 1.15586,0.768139 0.45375,0.534275 -1.45129,-0.483406 -3.60866,-0.25448 -2.40558,0.255267 0.58785,0.249056 0.69999,0.338749 0.4161,0.332787 -0.58748,-0.01236 -2.27008,0.34998 -2.19429,0.472545 0.0362,0.0593 0.28699,0.224456 0.55653,0.367458 0.73191,0.388269 0.69843,0.465335 -0.1975,0.454469 -1.04415,-0.01266 -1.78584,0.388077 -0.89403,0.483033 0.51068,0.05439 1.40562,0.493349 1.56555,0.767926 0.0354,0.06097 -0.22751,0.04417 -0.5845,-0.03724 -0.95286,-0.217335 -2.77453,-0.201456 -3.09638,0.02698 -0.22649,0.160766 -0.14658,0.201325 0.42336,0.215023 1.04476,0.02511 2.12116,0.460647 1.35579,0.548577 -1.0566,0.12139 -1.60433,1.43138 -0.64408,1.540403 1.35097,0.153381 2.1723,0.681459 1.06961,0.687717 -1.4611,0.0083 -2.30286,0.648123 -1.33104,1.011752 0.85376,0.319467 0.85376,0.319467 2.26185,-0.576257 3.47285,-2.209143 7.98443,-2.146254 12.53439,0.174734 1.2662,0.645898 2.94307,1.82574 3.17048,2.230771 0.14401,0.255705 0.0462,0.232072 -0.38542,-0.09456 -1.11341,-0.842128 -1.99454,-1.022654 -1.45158,-0.297401 0.45799,0.611784 0.45799,0.611784 -0.65671,-0.09565 -1.06564,-0.676307 -2.23394,-1.041508 -1.66097,-0.519226 0.13236,0.12064 0.35603,0.327467 0.4971,0.459586 0.14109,0.132116 -0.13992,0.02926 -0.6244,-0.228648 -0.4853,-0.258329 -0.9693,-0.394095 -1.07785,-0.302318 -0.12041,0.101808 -0.61239,-0.08879 -1.26557,-0.490338 -1.12237,-0.68996 -1.73556,-0.915312 -1.21788,-0.447579 0.83989,0.758842 0.77806,0.838573 -0.34926,0.450402 -0.63784,-0.219612 -1.24687,-0.446796 -1.35342,-0.50485 -0.12916,-0.07036 -0.16549,-0.04595 -0.10897,0.07328 0.1803,0.381217 0.92389,1.521397 1.14918,1.763081 0.13022,0.13982 -0.32609,0.03765 -1.01423,-0.226851 -1.14567,-0.440374 -1.28104,-0.448439 -1.60469,-0.09559 -0.19445,0.211973 -0.55482,0.409298 -0.80088,0.438549 -0.94785,0.112643 0.12704,1.150162 1.42078,1.371404 4.51098,0.771409 10.66499,5.132556 12.91535,9.152688 0.38363,0.685316 0.38363,0.685316 -0.22482,-0.08465 -1.3327,-1.68651 -2.58466,-2.696819 -1.91284,-1.543613 0.3791,0.650634 0.0852,0.641784 -0.41943,-0.01273 -0.84238,-1.092059 -1.91649,-1.860454 -1.65673,-1.185224 0.21628,0.562058 0.21628,0.562058 -0.23175,0.0077 -0.24636,-0.304923 -0.72599,-0.67219 -1.06581,-0.816161 -0.3398,-0.143982 -1.03035,-0.674167 -1.53456,-1.178184 -0.64581,-0.645579 -0.84114,-0.779691 -0.66098,-0.45379 0.2494,0.450769 0.25244,1.051987 0.004,0.624296 -0.58648,-1.006729 -2.42926,-1.927657 -2.03164,-1.015336 0.16372,0.376271 0.35422,0.858356 0.42318,1.071428 0.10255,0.316743 0.32668,0.402279 1.23035,0.468509 1.36443,0.09999 1.95101,0.332841 0.99173,0.393658 -1.47481,0.09351 -2.9487,0.216017 -2.99805,0.24917 -0.1985,0.133487 0.50659,0.272589 1.90103,0.375073 0.89359,0.06567 1.64219,0.149409 1.66355,0.186082 0.0472,0.08094 -0.44524,0.16074 -0.71201,0.115449 -1.34587,-0.228649 -1.57462,0.158727 -0.38372,0.64986 1.76219,0.726741 2.42744,1.24529 1.04828,0.817126 -1.79812,-0.558239 -2.70351,-0.370414 -1.04723,0.217282 1.17286,0.416151 2.24566,1.067754 2.51273,1.526196 0.23595,0.405048 0.23595,0.405048 -0.35571,0.203838 -0.32542,-0.110675 -0.62994,-0.175499 -0.67673,-0.144042 -0.0468,0.03145 -0.37627,-0.02549 -0.73218,-0.126553 -0.80297,-0.227968 -0.82125,-0.124048 -0.10173,0.578424 1.13808,1.111138 1.59987,2.201449 0.57978,1.369714 -0.87156,-0.710958 -0.87156,-0.710958 -0.57975,-0.09765 0.57534,1.2093 1.0804,1.659242 2.52413,2.248797 0.76011,0.310389 1.34235,0.591012 1.29388,0.623599 -0.15407,0.10358 -1.18101,0.05145 -1.84852,-0.09386 -0.78136,-0.170078 -0.79527,-0.197302 0.43025,0.841654 0.54638,0.463161 1.25164,1.197448 1.56726,1.631741 0.54355,0.747878 0.49236,0.718689 -0.96811,-0.552263 -1.41324,-1.229813 -2.54108,-2.063523 -2.35164,-1.738344 0.0429,0.07248 0.43089,0.604532 0.86329,1.181681 0.49202,0.656686 0.85401,1.268483 0.96737,1.634989 0.18156,0.585523 0.18156,0.585523 -0.12634,0.08498 -1.08734,-1.770235 -1.66029,-1.738914 -0.66805,0.03653 0.75906,1.358242 0.17827,0.930067 -0.63727,-0.469737 -0.81511,-1.399157 -1.14095,-1.583951 -0.60634,-0.343857 0.16442,0.382021 0.29756,0.90509 0.29537,1.16259 -0.002,0.257482 -0.0237,0.353109 -0.0478,0.212447 -0.0638,-0.373462 -1.12611,-2.612845 -1.21207,-2.555048 -0.0402,0.02689 0.0521,0.505471 0.20478,1.063308 0.34501,1.261511 0.24816,1.251376 -0.27888,-0.02885 -0.82155,-1.99563 -1.01385,-1.565358 -0.27494,0.615218 0.43598,1.286603 -0.27416,0.387614 -1.03178,-1.306164 -0.65938,-1.474138 -0.77054,-1.581424 -0.62828,-0.606198 0.10493,0.717882 0.10493,0.717882 -0.4081,0.0016 -0.51283,-0.71636 -0.51283,-0.71636 -0.26379,0.11845 0.36776,1.232605 0.1749,1.120612 -0.84683,-0.491752 -0.91718,-1.447475 -1.93433,-2.187277 -4.50657,-3.277882 -0.11828,-0.05017 0.80944,0.917802 2.06163,2.151024 7.42676,7.314217 18.21686,19.947598 23.47654,27.486961 1.00549,1.441329 0.99101,1.422798 1.16473,1.489579 1.51783,0.583449 3.82745,6.708799 2.79215,7.404966 -1.17997,0.793443 -1.17997,0.793443 -3.09767,-2.692429 z M 450.80229,73.464264 c -0.0547,-0.09292 -0.15472,-0.131791 -0.22313,-0.08579 -0.0685,0.04597 -0.08,0.159927 -0.0257,0.253117 0.0548,0.0929 0.15473,0.131783 0.22316,0.08577 0.0685,-0.04597 0.08,-0.159921 0.0257,-0.253109 z m 1.1745,-1.433365 c -0.22685,-0.08719 -0.18014,0.242305 0.0568,0.401197 0.17903,0.120016 0.20841,0.100445 0.15025,-0.100064 -0.0398,-0.137094 -0.13284,-0.272657 -0.20716,-0.301073 z m 11.85537,-14.068537 c -0.15189,-0.599277 -0.29224,-0.682831 -0.36186,-0.214066 -0.0382,0.257652 -9.2e-4,0.514345 0.0832,0.570375 0.23771,0.159361 0.36757,-0.0065 0.27908,-0.356372 z m -3.02001,-1.629653 c -0.078,-0.05239 -0.21145,0.01544 -0.29623,0.150777 -0.12575,0.200624 -0.15004,0.184611 -0.13164,-0.08686 0.0861,-1.271401 -0.66545,-1.197228 -0.93042,0.0918 -0.0108,0.05216 0.32834,0.234968 0.75349,0.406234 0.71868,0.289505 1.20329,-0.160729 0.60481,-0.561921 z m -9.21464,5.159457 c -0.0486,-0.421227 -0.14119,-0.730416 -0.20555,-0.68715 -0.10502,0.07064 0.005,1.19588 0.13998,1.426985 0.12711,0.218242 0.1485,-0.02258 0.0656,-0.739839 z m 7.26969,-5.772696 c -0.36029,-0.822504 -0.52903,-0.883079 -0.52652,-0.189 0.002,0.492699 0.0536,0.615156 0.31103,0.73308 0.46092,0.211285 0.50151,0.108873 0.21552,-0.544094 z m -0.80828,-0.118922 c -0.0507,-0.08797 -0.14889,-0.121786 -0.21731,-0.07578 -0.0685,0.04597 -0.0551,0.202537 0.0293,0.347847 0.0843,0.145429 0.18242,0.179396 0.21731,0.07578 0.0349,-0.103597 0.0216,-0.260138 -0.0293,-0.347849 z m -1.04951,-0.398021 c -0.16556,-0.156908 -0.83282,-0.395632 -1.48288,-0.530474 -2.22888,-0.462428 -2.28719,-0.362404 -0.2165,0.371475 2.02132,0.71638 2.31669,0.744017 1.69938,0.158999 z m 4.99662,-3.999065 c -0.90916,-0.811324 -1.6265,-1.158414 -1.94769,-0.94243 -0.1612,0.108369 -0.58034,0.115484 -0.93144,0.0158 -0.63838,-0.181252 -0.63838,-0.181252 -0.15408,0.650106 0.48432,0.831367 0.48432,0.831367 2.02656,0.883533 1.75401,0.05933 1.75361,0.05958 1.00665,-0.607014 z m -20.99839,12.845314 c -0.14703,-0.114483 -0.36514,-0.301563 -0.48465,-0.415756 -0.11937,-0.114265 -0.0275,0.128733 0.20461,0.539812 0.36174,0.641095 0.4307,0.700302 0.48466,0.41576 0.0414,-0.218676 -0.0283,-0.402646 -0.20462,-0.539812 z m 0.32114,-0.603861 c -0.0263,-0.04704 -0.0774,-0.06589 -0.11158,-0.04288 -0.0343,0.02299 -0.0401,0.07998 -0.0129,0.126566 0.0263,0.04704 0.0774,0.06589 0.11157,0.04288 0.0343,-0.023 0.0401,-0.07998 0.0129,-0.126565 z m 17.78991,-11.970294 c -0.1768,-0.303539 -1.70587,-1.345541 -1.991,-1.35683 -0.98384,-0.03893 -0.004,1.31516 1.05606,1.459019 0.78235,0.106195 1.03994,0.07804 0.93494,-0.102187 z m -17.01826,9.18801 c -0.55451,-0.547469 -1.02317,-0.662377 -0.98623,-0.241826 0.0153,0.175861 0.10687,0.39586 0.20387,0.488729 0.0966,0.09302 0.14836,0.250189 0.11514,0.349239 -0.0333,0.09902 -0.12051,0.08147 -0.19365,-0.0391 -0.20944,-0.344536 -0.0882,0.331875 0.18711,1.046808 0.2367,0.614675 0.2367,0.614675 0.65323,-0.299228 0.40033,-0.878315 0.40113,-0.929112 0.0207,-1.304683 z m 14.1001,-9.646782 c -1.07662,-0.441094 -3.54636,-0.345465 -4.47794,0.173396 -1.18611,0.660631 -0.87453,0.803553 1.18162,0.542042 0.99759,-0.126887 2.2779,-0.236594 2.84516,-0.243812 1.19237,-0.01518 1.29737,-0.124944 0.45116,-0.471628 z m -13.25582,9.430693 c 0.14125,-0.242691 -0.34479,-1.275815 -0.53873,-1.145364 -0.10848,0.07297 0.039,1.00639 0.20368,1.289073 0.11009,0.189461 0.15163,0.171551 0.33506,-0.143679 z m 0.2266,-0.873907 c -0.0819,-0.03142 -0.0895,0.04453 -0.0172,0.168745 0.0724,0.124301 0.13937,0.149969 0.14874,0.0572 0.009,-0.09284 -0.0505,-0.19433 -0.13162,-0.22594 z m 0.84306,-0.881343 c -0.0125,-0.121575 -0.0807,-0.181483 -0.15359,-0.13254 -0.0724,0.04879 -0.0874,0.164864 -0.0331,0.258055 0.0546,0.09295 0.12337,0.152846 0.15357,0.13255 0.0302,-0.02037 0.0452,-0.136437 0.0331,-0.258061 z m 3.85956,-4.662335 c -5.1929,-0.997372 -7.69061,-0.233974 -10.6532,3.25605 -0.41481,0.488654 0.21514,0.333532 1.84381,-0.454032 2.15174,-1.04049 4.85577,-1.937859 6.82254,-2.264149 1.75988,-0.291961 2.38543,-0.461311 1.98685,-0.537878 z m 8.81255,-7.7698 c -0.33593,-0.08611 -0.74626,-0.06596 -0.91194,0.04479 -0.36822,0.246235 -0.20358,0.319775 0.75213,0.33618 0.90261,0.01548 0.98064,-0.170527 0.15981,-0.380973 z m -19.87791,13.50439 c 0.51977,-0.34951 0.10567,-0.504001 -0.49944,-0.186321 -0.35974,0.188845 -0.42758,0.315371 -0.31851,0.593879 0.10474,0.2678 0.17414,0.292926 0.28427,0.103623 0.0801,-0.137648 0.32028,-0.367686 0.53368,-0.511181 z m 0.9909,-1.485101 c -0.0967,-0.166607 -1.69085,0.299011 -1.82746,0.533689 -0.22935,0.394045 -0.0149,0.54312 0.46504,0.323175 0.70107,-0.321315 1.41342,-0.76932 1.36242,-0.856862 z m -2.36041,-0.178824 c 0.0501,-0.154399 0.0395,-0.300582 -0.0236,-0.32487 -0.1729,-0.06645 -0.56293,0.498409 -0.4628,0.670264 0.11332,0.194243 0.37042,0.01173 0.48645,-0.345402 z m 10.26507,-6.91172 c -0.0966,-0.06478 -0.25631,-0.06348 -0.35494,0.0028 -0.0986,0.06629 -0.13484,0.196802 -0.0806,0.289998 0.0546,0.09295 0.21401,0.09192 0.35491,-0.0028 0.14089,-0.09475 0.17719,-0.225259 0.0806,-0.29001 z m -2.13049,-0.139546 c -0.0819,-0.03144 -0.15646,0.01876 -0.16591,0.111566 -0.009,0.09284 0.058,0.118301 0.14879,0.05718 0.0913,-0.06133 0.099,-0.137291 0.0172,-0.168755 z m 8.27227,-6.112765 c 0.0708,-0.225784 0.015,-0.239522 -0.25276,-0.06226 -0.18907,0.12506 -0.29927,0.303745 -0.24497,0.396938 0.12473,0.214271 0.37908,0.04327 0.49772,-0.334687 z m -9.31237,5.449929 c -0.0602,-0.02313 -0.23901,0.128343 -0.39731,0.33658 -0.27086,0.356407 -0.26674,0.380115 0.0704,0.40316 0.34429,0.02354 0.63008,-0.623179 0.32691,-0.73974 z m -0.85681,-0.314345 c -0.043,-0.07245 -0.21004,-0.04287 -0.37259,0.06643 -0.16253,0.109294 -0.49826,0.268726 -0.74605,0.354232 -0.5615,0.193836 -0.42096,0.520582 0.23184,0.53964 0.46947,0.01362 1.07306,-0.640136 0.88659,-0.960233 z m -1.87,0.244786 c 0.41128,-0.763737 0.32006,-0.804211 -0.38018,-0.168687 -0.68181,0.618793 -0.73847,0.745336 -0.35528,0.793514 0.36257,0.04557 0.38443,0.027 0.73546,-0.624827 z m 4.14642,-2.876811 c -0.13283,-0.228068 -0.85726,-0.531443 -1.4316,-0.599586 -0.6646,-0.07885 -0.55024,0.089 0.39893,0.58542 0.70613,0.369354 1.24392,0.376721 1.0327,0.01415 z m -5.18253,2.737684 c 0.29537,-0.859595 0.14182,-0.838287 -0.45699,0.06339 -0.30223,0.455111 -0.40719,0.747448 -0.2629,0.732341 0.4041,-0.0423 0.49582,-0.143733 0.71989,-0.795734 z m -1.05568,-0.221322 c 0.73362,-1.950024 0.44697,-2.079541 -0.58996,-0.266545 -0.66103,1.155747 -0.67571,1.220237 -0.28273,1.242944 0.5359,0.03096 0.46303,0.112493 0.87269,-0.976399 z M 448.2667,37.899995 c 0.0933,-0.575626 0.11385,-1.008443 0.0458,-0.961805 -0.25237,0.172922 -0.83447,2.000129 -0.6719,2.109115 0.29987,0.201073 0.45317,-0.07982 0.62611,-1.14731 z m -7.51896,3.895324 c -0.0112,-0.116992 -0.33837,-0.217715 -0.72631,-0.223868 -0.78148,-0.01242 -0.80092,0.04648 -0.15138,0.459577 0.44744,0.284554 0.91659,0.158561 0.87769,-0.235703 z m 9.89818,33.778564 c -0.0262,-0.04705 -0.0216,-0.103505 0.0129,-0.126567 0.0343,-0.02299 0.0845,-0.0037 0.11161,0.04286 0.0262,0.04705 0.0206,0.103695 -0.0129,0.126566 -0.0343,0.02299 -0.0845,0.0037 -0.11159,-0.04288 z m 5.97253,-4.016119 c -0.0263,-0.04703 -0.0207,-0.103686 0.0129,-0.126563 0.0343,-0.02299 0.0844,-0.0037 0.11156,0.04288 0.0263,0.04703 0.0216,0.103501 -0.0129,0.126561 -0.0343,0.02301 -0.0846,0.0037 -0.11159,-0.04288 z"
         id="tree1" /><path
         style="fill:#000000;stroke:none;stroke-width:0.219634"
         d="m 500.09618,95.338887 c 0.3341,-12.555308 -0.22915,-18.779856 -2.84895,-31.484372 -1.82542,-8.852199 -5.23107,-21.845268 -4.5935,-17.52489 0.0687,0.465316 0.16209,4.000509 0.20761,7.855985 0.0689,5.837043 0.0533,6.408285 -0.0934,3.414047 -0.17813,-3.636001 -0.33802,-4.943462 -0.38795,-3.172325 -0.0697,2.473007 -0.3572,2.922515 -0.3865,0.604307 -0.032,-2.528452 -0.27794,-2.540877 -0.50339,-0.02543 -0.12494,1.394089 -0.65906,3.552871 -0.82832,3.347863 -0.0371,-0.04496 0.0652,-0.615839 0.22743,-1.268628 0.46594,-1.87527 0.2483,-1.779187 -0.78886,0.348271 -0.89966,1.845401 -1.5021,2.59438 -0.85658,1.064932 1.13221,-2.68259 1.97517,-6.350257 1.08506,-4.721066 -0.52053,0.952764 -1.85374,2.777881 -1.71062,2.341807 0.0436,-0.132948 0.4579,-1.160559 0.92061,-2.283578 0.84612,-2.053596 1.16152,-3.429981 0.47375,-2.06743 -0.47129,0.933678 -0.79699,1.249605 -1.51251,1.467131 -0.58065,0.17652 -0.58065,0.17652 -0.0548,-0.658612 1.15451,-1.833404 2.03283,-5.441775 1.05441,-4.331793 -0.2841,0.322308 -0.51501,0.539859 -0.51313,0.483446 0.002,-0.05641 0.17995,-0.91838 0.39571,-1.915485 0.44786,-2.06977 0.48466,-2.509794 0.19156,-2.290378 -0.19736,0.147748 -0.18543,-2.42e-4 0.13688,-1.698046 0.0828,-0.436087 0.0516,-0.427544 -0.31789,0.08721 -0.43517,0.606158 -0.52174,0.423928 -0.23491,-0.494487 0.38801,-1.242444 0.49381,-3.267534 0.14289,-2.735116 -0.20797,0.315538 -0.28083,0.350496 -0.20976,0.100651 0.19824,-0.696959 0.41723,-3.847352 0.26744,-3.847352 -0.0809,0 -0.20753,0.625457 -0.28144,1.389905 -0.50278,5.200174 -1.63622,11.579503 -3.02791,17.041987 -0.88305,3.46601 -1.03849,3.532696 -0.36305,0.155756 0.60248,-3.012188 0.6287,-3.699579 0.0745,-1.952178 -0.49994,1.576196 -0.6605,1.535369 -0.26243,-0.06673 0.43429,-1.747903 0.34547,-2.421064 -0.14494,-1.098486 -0.49158,1.325694 -1.57814,3.441102 -1.69488,3.299707 -0.0467,-0.05654 0.0993,-0.468577 0.32427,-0.91565 0.64604,-1.283538 0.49583,-1.278947 -0.79711,0.02436 -1.80488,1.819351 -1.80141,1.690951 0.0258,-0.958078 1.64787,-2.388988 2.35257,-3.882079 1.2318,-2.609906 -1.65782,1.881777 -2.37818,1.753688 -0.88212,-0.156853 1.45766,-1.861506 1.80856,-2.698957 0.62579,-1.493464 -0.62643,0.638457 -1.65451,0.852166 -1.88897,0.392662 -0.0678,-0.132948 -0.0313,-0.241723 0.0811,-0.241723 0.36071,0 1.6675,-1.537441 2.24891,-2.645843 0.67165,-1.280448 0.70736,-1.57358 0.14748,-1.210639 -0.6347,0.411436 -0.69185,0.08907 -0.1401,-0.790099 0.99019,-1.577769 1.48802,-3.215646 0.67986,-2.236759 -0.29776,0.360665 -0.32311,0.348929 -0.32311,-0.149638 0,-0.820312 -0.19771,-0.420254 -0.81385,1.646788 -0.43343,1.454061 -0.5649,1.716555 -0.57899,1.156044 -0.0209,-0.828971 -0.58069,0.01576 -0.59572,0.898874 -0.005,0.249093 -0.1157,0.364936 -0.27838,0.289321 -0.19512,-0.0907 -0.40385,0.429468 -0.74327,1.852272 -0.46102,1.932521 -0.47747,1.962234 -0.70976,1.281874 -0.23781,-0.696502 -0.23781,-0.696502 -0.47431,0.02867 -0.45512,1.395503 -0.48426,2.478764 -0.0701,2.607655 0.29487,0.09178 0.27357,0.121944 -0.10179,0.144115 -0.45398,0.02681 -0.46915,0.08352 -0.3471,1.297084 0.12459,1.238867 -0.48668,1.013143 -0.93796,-0.346357 -0.22302,-0.671857 -0.52927,0.417955 -0.55585,1.977984 -0.0302,1.769688 -0.49282,0.319998 -0.57861,-1.812919 -0.0518,-1.288648 -0.50889,0.344723 -0.71553,2.557038 -0.17414,1.864278 -0.48127,1.84308 -0.48127,-0.03322 0,-1.714375 -0.25859,-1.702946 -0.60113,0.02657 -0.13316,0.672325 -0.28407,1.171574 -0.33536,1.109444 -0.0904,-0.109491 0.36805,-2.501493 0.64352,-3.35768 0.0952,-0.295771 0.0397,-0.423014 -0.18459,-0.423014 -0.17638,0 -0.3207,0.08798 -0.3207,0.195522 0,0.107538 -0.14204,0.40667 -0.31564,0.664737 -0.32952,0.489856 -0.3204,0.353919 0.0537,-0.799828 0.26814,-0.827039 -0.47057,0.14631 -1.34546,1.77283 -1.06621,1.982202 -1.25421,1.871348 -0.24686,-0.145566 0.41619,-0.83329 1.02611,-2.088976 1.35539,-2.790416 0.54137,-1.153221 2.23663,-4.253031 2.83112,-5.176732 2.26021,-3.511826 4.8909,-7.288365 6.49139,-9.31883 2.20899,-2.802455 2.27342,-3.017792 0.71848,-2.401544 -2.46779,0.978029 -4.55299,3.293447 -4.55299,5.055662 0,0.777231 -0.36054,0.332282 -0.57788,-0.713163 -0.39458,-1.898096 -0.79864,-1.193578 -0.83181,1.450336 -0.0204,1.625788 -0.73558,-0.0019 -0.77004,-1.75249 -0.0585,-2.973736 -0.61988,0.222477 -0.79597,4.5323 -0.14019,3.430931 -0.43592,2.47748 -0.731,-2.356796 -0.20624,-3.378615 -0.74839,-2.344289 -1.02587,1.95717 -0.157,2.433743 -0.55694,1.123032 -0.78506,-2.57282 -0.22688,-3.675785 -0.84274,-0.872097 -0.89188,4.060197 -0.0288,2.896202 -0.33086,2.03641 -0.36086,-1.02732 -0.008,-0.830922 -0.10053,-1.510767 -0.20531,-1.510767 -0.24301,0 -0.49418,1.502081 -0.47972,2.868928 0.0106,0.998859 -0.003,1.025023 -0.25092,0.483445 -0.14414,-0.31491 -0.26526,-0.784675 -0.26914,-1.043922 -0.0227,-1.511202 -0.80195,1.692602 -0.80839,3.323497 -0.002,0.588452 -0.0494,0.686887 -0.19651,0.411118 -0.10639,-0.199422 -0.19482,-0.661716 -0.1965,-1.027322 -0.002,-0.365605 -0.0801,-0.664737 -0.17419,-0.664737 -0.17771,0 -0.42756,2.280827 -0.42756,3.903021 0,0.512287 -0.0898,0.931432 -0.19956,0.931432 -0.10976,0 -0.19957,-0.271938 -0.19957,-0.604307 0,-0.332368 -0.0898,-0.604306 -0.19956,-0.604306 -0.10976,0 -0.19957,0.326325 -0.19957,0.725167 0,1.873017 -0.8849,0.260246 -1.18809,-2.165354 -0.12394,-0.991521 -0.26075,-1.845645 -0.30401,-1.898049 -0.16542,-0.200361 -0.34539,1.699822 -0.23114,2.440325 0.10641,0.689654 0.0922,0.722676 -0.12614,0.293604 -0.48094,-0.945027 -0.3085,-4.637743 0.29858,-6.393928 0.82713,-2.392764 0.45312,-2.196812 -1.59575,0.836045 -0.65202,0.965153 -0.65202,0.965153 -0.26442,-0.317307 0.39799,-1.316865 1.0725,-2.432848 2.97402,-4.920619 1.08925,-1.425071 1.08925,-1.425071 0.95783,-2.779547 -0.25975,-2.676865 -0.7603,-2.416996 -1.04761,0.543869 -0.17281,1.78095 -0.47108,1.908758 -0.47108,0.201856 0,-1.51055 -0.21653,-1.408097 -1.06051,0.501777 -0.32045,0.725168 -0.32045,0.725168 -0.32845,0.08498 -0.005,-0.352105 0.25663,-1.2495 0.58005,-1.994211 0.32341,-0.744711 0.55923,-1.354022 0.52404,-1.354022 -0.0352,0 -0.50186,0.295848 -1.03705,0.657436 -1.15263,0.778762 -0.87078,-0.07734 0.5062,-1.537475 0.69799,-0.740148 -1.10888,-1.509514 -2.27365,-0.968126 -0.16677,0.07751 -0.30321,0.03397 -0.30321,-0.09675 0,-0.435707 1.21271,-1.138349 2.45959,-1.425085 2.43756,-0.56055 2.10938,-1.027024 -0.51385,-0.730377 -1.3347,0.150934 -1.40031,0.09438 -0.44902,-0.387066 0.70454,-0.356562 1.04125,-1.534564 0.44902,-1.570941 -0.1372,-0.0084 -0.0474,-0.113696 0.19957,-0.233931 0.24695,-0.120238 0.44901,-0.38528 0.44901,-0.588987 0,-0.496428 -0.7685,-0.47791 -1.23155,0.02968 -0.24906,0.273014 -0.36495,0.304046 -0.36495,0.09773 0,-0.402304 0.64293,-1.706387 0.84128,-1.706387 0.0861,0 0.15654,-0.108776 0.15654,-0.241723 0,-0.353445 -0.61319,-0.292615 -1.27697,0.126675 -0.31817,0.200978 -0.61593,0.32007 -0.66169,0.264643 -0.17037,-0.206361 1.26973,-1.321653 2.08179,-1.612256 0.46289,-0.165648 0.78781,-0.406622 0.72205,-0.535497 -0.1217,-0.238515 -1.46328,-0.103152 -2.17137,0.219087 -0.34338,0.156263 -0.35787,0.129512 -0.12099,-0.223349 0.49636,-0.739378 2.61537,-1.828209 4.13628,-2.125391 1.906,-0.372427 1.68221,-0.760358 -0.43864,-0.760358 -2.57151,0 -1.05783,-0.740791 1.77664,-0.869479 1.76842,-0.08029 2.11179,-0.155253 1.92954,-0.421254 -0.18025,-0.263064 -0.0938,-0.298447 0.46207,-0.18918 0.77277,0.151895 1.47094,-0.216093 2.54164,-1.339624 0.82688,-0.867689 0.65899,-0.918007 -0.89804,-0.269141 -1.48458,0.618676 -3.13888,0.697253 -2.1952,0.10427 1.19323,-0.749785 1.05662,-0.859342 -0.89803,-0.720161 -1.89585,0.134995 -1.89585,0.134995 -0.19956,-0.436746 3.3184,-1.118483 3.29845,-1.210059 -0.29935,-1.374002 -5.09081,-0.231976 -5.75015,-0.824147 -1.1428,-1.02638 4.08648,-0.17937 4.38887,-0.310532 2.35447,-1.021272 -0.84554,-0.295401 -1.64367,-0.672672 -1.77364,-0.838379 -0.18595,-0.237107 -0.14901,-0.269506 0.17339,-0.152096 0.22532,0.08206 1.33142,0.255572 2.45799,0.385589 2.68595,0.309985 5.80621,2.189338 8.53705,5.141925 0.42276,0.457089 1.06052,0.89918 1.41724,0.982424 0.70619,0.1648 0.83589,-0.07252 0.32197,-0.589136 -0.17964,-0.18058 -0.48231,-0.764969 -0.67262,-1.298641 -0.41247,-1.156739 -0.77061,-1.56191 -2.094,-2.369013 -1.07917,-0.658155 -1.04272,-0.697151 0.89125,-0.953337 0.50661,-0.06711 -1.77094,-2.119834 -2.352,-2.119834 -0.12955,0 -0.23554,-0.106055 -0.23554,-0.235679 0,-0.1316 0.28642,-0.177868 0.64858,-0.104769 0.84548,0.170652 0.35455,-0.232978 -1.24727,-1.0254618 -0.60369,-0.298664 -1.0976,-0.678897 -1.0976,-0.844963 0,-0.166065 -0.49159,-0.612999 -1.09243,-0.993187 -1.32362,-0.837546 -1.35849,-0.874292 -0.68089,-0.717395 0.32542,0.07535 0.4876,0.03017 0.41344,-0.115182 -0.1686,-0.330432 -2.59531,-1.757481 -3.05501,-1.796527 -0.20605,-0.0175 -0.0603,-0.09908 0.32383,-0.181291 0.8672,-0.185579 -0.0262,-0.9810739 -1.9588,-1.7441129 -0.73289,-0.289365 -0.8872,-0.401281 -0.43595,-0.316187 3.16285,0.596451 8.3461,3.9972369 11.31241,7.4221907 0.81873,0.945322 0.85708,0.9614 1.92877,0.808835 1.83358,-0.261028 1.89182,-0.387195 0.54117,-1.1723898 -1.11232,-0.646644 -1.42153,-1.159384 -0.69917,-1.159384 0.49208,0 0.31595,-0.410557 -0.31112,-0.725168 -0.66436,-0.333322 -0.75763,-0.599572 -0.2867,-0.81846 0.43825,-0.2037 0.1913,-0.565752 -0.51385,-0.753346 -0.87754,-0.23346 -0.72558,-0.602527 0.25175,-0.611386 1.01041,-0.0092 0.66276,-0.511871 -0.69464,-1.004476 -0.41371,-0.150134 -0.7522,-0.36453 -0.7522,-0.476433 0,-0.2758049 0.85515,-0.2572009 1.48374,0.03228 0.83112,0.382749 0.60902,-0.08464 -0.98483,-2.0723989 -1.7491,-2.18138706 -1.75649,-2.19875406 -0.64858,-1.52476106 1.35908,0.82679696 2.09598,1.60150306 3.36891,3.54175096 2.1419,3.264773 3.20339,6.3439908 4.22924,12.2683848 0.25114,1.450335 0.25114,1.450335 0.79544,-1.246717 0.83617,-4.143264 2.03443,-7.3661298 3.77976,-10.1661628 0.96458,-1.5474859 1.03544,-1.5785919 0.54658,-0.23997 -0.58492,1.601642 -0.75943,3.507524 -0.21133,2.307896 0.41219,-0.902142 1.38832,-2.003129 1.57524,-1.77672 0.0568,0.06886 -0.0811,0.369515 -0.30647,0.668122 -0.45404,0.60149 -1.0552,1.943299 -1.0552,2.355229 0,0.145815 0.33676,-0.06142 0.74836,-0.460527 0.87553,-0.848956 2.17526,-1.553442 2.46535,-1.336282 0.11148,0.08345 -0.18433,0.386046 -0.65736,0.672426 -0.78052,0.472535 -0.81392,0.527375 -0.36115,0.592974 1.03811,0.150406 1.10132,0.311575 0.29545,0.7534 -1.91618,1.05056 -1.68606,1.7482808 0.35312,1.070701 0.66621,-0.221364 0.34518,0.3287768 -0.4431,0.7593328 -1.47113,0.803533 -1.64796,1.332706 -0.44536,1.332706 0.56065,0 1.23983,0.121674 1.50929,0.270386 0.4087,0.225555 0.66858,0.164515 1.56742,-0.368147 1.42109,-0.842159 3.95454,-1.201528 6.19342,-0.878538 2.97928,0.429803 3.09756,0.732844 0.22509,0.576637 -1.59235,-0.08659 -2.75735,-0.04842 -2.97246,0.09739 -0.26178,0.17745 0.10775,0.268205 1.42132,0.349072 1.93129,0.118896 3.53605,0.864337 4.15135,1.928375 0.411,0.710759 0.31919,0.760797 -0.57013,0.310713 -1.38762,-0.702266 -1.95698,-0.365948 -0.83231,0.491644 0.8188,0.624372 2.11939,2.49504 2.11939,3.048381 0,0.100874 -0.29127,0.08222 -0.64726,-0.04144 -1.11332,-0.386749 -1.20959,-0.271457 -0.56465,0.676256 0.71434,1.049686 0.81632,1.584045 0.16421,0.860391 -1.34793,-1.49581 -3.98781,-2.748141 -2.94357,-1.396396 0.51022,0.660461 0.57925,0.829699 0.2561,0.627912 -0.66874,-0.417594 -2.85104,-1.205938 -2.84598,-1.028095 0.002,0.08577 0.18005,0.427883 0.39468,0.760252 0.5828,0.902457 0.49246,0.958367 -0.53273,0.329707 -1.19479,-0.73267 -2.31855,-0.833129 -1.35457,-0.121093 0.552,0.407739 1.28861,1.474521 1.28861,1.866213 0,0.08693 -0.29186,-0.111538 -0.64858,-0.441041 -0.9522,-0.879551 -3.06216,-2.118866 -3.58644,-2.106548 -0.3689,0.0087 -0.30406,0.105334 0.34354,0.512209 1.18713,0.745847 2.1352,1.934202 1.19415,1.4968 -1.29914,-0.603842 -2.80983,0.361389 -1.77641,1.135004 1.4539,1.088385 2.04588,2.195783 0.77093,1.442157 -1.68936,-0.998585 -3.08895,-0.922922 -2.21314,0.119645 0.76941,0.915924 0.76941,0.915924 2.99344,0.96834 5.48527,0.129274 10.64221,3.303363 14.32744,8.818518 1.02556,1.534801 2.16589,3.899951 2.15606,4.471868 -0.006,0.361369 -0.10235,0.269809 -0.3807,-0.362583 -0.71774,-1.630625 -1.61196,-2.422989 -1.47315,-1.305353 0.11708,0.942769 0.11708,0.942769 -0.69257,-0.550683 -0.77402,-1.427732 -1.87519,-2.607329 -1.56556,-1.677062 0.0715,0.214887 0.19046,0.58106 0.26432,0.813718 0.0738,0.232658 -0.18087,-0.06647 -0.56604,-0.664737 -0.38583,-0.599293 -0.85247,-1.072055 -1.03916,-1.052796 -0.20712,0.02137 -0.64612,-0.513114 -1.12928,-1.374915 -0.83022,-1.480822 -1.38557,-2.134457 -1.103,-1.298211 0.45845,1.356731 0.33367,1.395842 -0.70488,0.220944 -0.5876,-0.664737 -1.13694,-1.317388 -1.22075,-1.450335 -0.1016,-0.16115 -0.15986,-0.16115 -0.17479,0 -0.0477,0.515082 0.0433,2.196262 0.14071,2.599287 0.0563,0.233081 -0.40111,-0.186141 -1.01655,-0.931601 -1.0246,-1.241046 -1.17519,-1.342618 -1.7851,-1.204026 -0.36637,0.08325 -0.91415,0.03713 -1.21732,-0.10248 -1.16794,-0.53786 -0.6258,1.266488 0.71659,2.384989 4.68062,3.899941 8.84468,12.611897 8.73909,18.283699 -0.018,0.96689 -0.018,0.96689 -0.20225,-0.241723 -0.40356,-2.647284 -1.16805,-4.54579 -1.16805,-2.900671 0,0.928205 -0.33242,0.716673 -0.47482,-0.302154 -0.23762,-1.700008 -0.95954,-3.227954 -1.11353,-2.356795 -0.12818,0.725168 -0.12818,0.725168 -0.27222,-0.151855 -0.0792,-0.482363 -0.38535,-1.189401 -0.6803,-1.571197 -0.29494,-0.381796 -0.7348,-1.401213 -0.97747,-2.265372 -0.31083,-1.106862 -0.4459,-1.378964 -0.45707,-0.920726 -0.0154,0.633949 -0.41499,1.252418 -0.41499,0.642395 0,-1.436144 -1.50533,-3.650261 -1.65961,-2.441048 -0.0636,0.498553 -0.16785,1.12401 -0.23163,1.389905 -0.0948,0.395277 0.10641,0.637519 1.10334,1.328264 1.50523,1.042921 2.02491,1.685918 0.8786,1.087062 -1.76239,-0.920702 -3.54314,-1.811019 -3.62229,-1.811019 -0.31835,0 0.4008,0.628575 1.93896,1.694748 0.98571,0.683242 1.79219,1.285053 1.79219,1.337365 0,0.115447 -0.62104,-0.142104 -0.89804,-0.372427 -1.39749,-1.162019 -1.92116,-0.92261 -0.8785,0.401634 1.54287,1.959529 1.96138,2.949581 0.65949,1.560114 -1.69739,-1.811571 -2.86687,-2.243096 -1.35271,-0.499138 1.07222,1.234956 1.87107,2.642304 1.87107,3.296294 0,0.577821 0,0.577821 -0.54676,-0.03627 -0.30072,-0.337749 -0.60814,-0.614089 -0.68316,-0.614089 -0.075,0 -0.41649,-0.285472 -0.75883,-0.634384 -0.77229,-0.787122 -0.86312,-0.693198 -0.50556,0.522776 0.56557,1.92337 0.36577,3.359263 -0.25097,1.803667 -0.5271,-1.329475 -0.5271,-1.329475 -0.60256,-0.499685 -0.1488,1.636119 0.13114,2.445435 1.39911,4.044842 0.66756,0.84206 1.15014,1.531018 1.07242,1.531018 -0.24709,0 -1.39555,-0.761277 -2.06725,-1.370314 -0.78625,-0.712888 -0.78401,-0.750384 -0.0691,1.15928 0.31869,0.851342 0.63848,2.090108 0.71065,2.752815 0.12429,1.141228 0.0849,1.076032 -0.74492,-1.233371 -0.80297,-2.234658 -1.54299,-3.866605 -1.54299,-3.40271 0,0.103828 0.0907,0.916648 0.20155,1.806275 0.12613,1.012249 0.13255,1.888849 0.0171,2.342667 -0.1844,0.725167 -0.1844,0.725167 -0.20266,0 -0.0646,-2.563986 -0.74592,-2.926795 -0.7944,-0.423015 -0.0371,1.915422 -0.41902,1.076195 -0.41902,-0.920726 0,-1.995996 -0.25146,-2.410001 -0.46791,-0.77039 -0.0667,0.504964 -0.26473,1.132831 -0.44014,1.395262 -0.17542,0.262431 -0.26434,0.345615 -0.19761,0.184855 0.17716,-0.426785 0.45636,-3.454409 0.31857,-3.454409 -0.0644,0 -0.27948,0.553953 -0.47801,1.231006 -0.44892,1.530989 -0.55412,1.453739 -0.30201,-0.221786 0.39299,-2.611822 -0.11745,-2.303326 -0.72987,0.441115 -0.36135,1.619293 -0.57617,0.208346 -0.31213,-2.050013 0.2298,-1.965502 0.1737,-2.152088 -0.31707,-1.054414 -0.36129,0.808062 -0.36129,0.808062 -0.47134,-0.27969 -0.11004,-1.087751 -0.11004,-1.087751 -0.38349,-0.06043 -0.40376,1.516906 -0.55083,1.269181 -0.64578,-1.087752 -0.0852,-2.115859 -0.7607,-3.57525 -2.99278,-6.46608 -0.10266,-0.132948 0.31663,1.49868 0.93174,3.625839 3.64824,12.61618 7.60142,33.002832 8.6011,44.356101 0.19111,2.170438 0.18685,2.141462 0.34223,2.329655 1.35745,1.644222 -0.0932,9.514757 -1.75365,9.514757 -1.89247,0 -1.89247,0 -1.76221,-4.894886 z M 477.00935,52.130968 c 0,-0.132947 -0.0898,-0.241723 -0.19956,-0.241723 -0.10976,0 -0.19957,0.108776 -0.19957,0.241723 0,0.132947 0.0898,0.241722 0.19957,0.241722 0.10976,0 0.19956,-0.108775 0.19956,-0.241722 z m 2.31577,-0.659702 c -0.20286,-0.245714 -0.37024,0.124219 -0.2038,0.450421 0.12573,0.246417 0.17274,0.246608 0.24034,9.59e-4 0.0462,-0.167946 0.0297,-0.371076 -0.0366,-0.451397 z m 23.10722,-6.249164 c 0.22773,-0.718822 0.12131,-0.901383 -0.27329,-0.468833 -0.21693,0.237795 -0.34634,0.526591 -0.28757,0.641772 0.16694,0.327181 0.42791,0.246716 0.56086,-0.172939 z m -2.3862,-3.751984 c -0.0549,-0.107554 -0.25405,-0.129909 -0.44262,-0.04968 -0.27961,0.118974 -0.29683,0.08582 -0.0934,-0.179762 0.95283,-1.243841 0.0369,-1.685853 -1.13385,-0.547209 -0.0473,0.04607 0.22064,0.46716 0.5956,0.935743 0.63384,0.792108 1.49457,0.664635 1.07426,-0.159098 z m -14.08287,-1.062697 c 0.22665,-0.465316 0.32764,-0.846029 0.2244,-0.846029 -0.16844,0 -0.79665,1.229529 -0.79665,1.559193 0,0.311351 0.18628,0.0792 0.57225,-0.713164 z m 12.25318,-0.90646 c 0.13708,-1.091399 -0.0168,-1.269808 -0.47987,-0.556632 -0.32876,0.506242 -0.3511,0.667549 -0.13376,0.965796 0.38932,0.534258 0.50481,0.457254 0.61363,-0.409164 z m -0.85163,-0.679004 c 0,-0.125101 -0.0898,-0.227456 -0.19956,-0.227456 -0.10976,0 -0.19956,0.169583 -0.19956,0.37685 0,0.207268 0.0898,0.309623 0.19956,0.227457 0.10976,-0.08217 0.19956,-0.25175 0.19956,-0.376851 z m -0.94223,-1.131359 c -0.0854,-0.274942 -0.69418,-0.979568 -1.35275,-1.565835 -2.25815,-2.010274 -2.39249,-1.947931 -0.49891,0.231541 1.84844,2.127507 2.17029,2.359433 1.85166,1.334294 z m 8.4429,-0.655189 c -0.50303,-1.458266 -1.09667,-2.30847 -1.61182,-2.30847 -0.25851,0 -0.74631,-0.281607 -1.08401,-0.625794 -0.614,-0.625795 -0.614,-0.625795 -0.614,0.560185 0,1.185979 0,1.185979 1.74226,2.302454 1.98149,1.269779 1.98087,1.26975 1.56757,0.07163 z m -32.82245,-1.306533 c -0.0926,-0.218696 -0.21835,-0.560793 -0.2794,-0.760214 -0.061,-0.199422 -0.11808,0.113029 -0.12674,0.694333 -0.0135,0.906472 0.0262,1.014687 0.2794,0.760218 0.19456,-0.195585 0.23775,-0.432217 0.12674,-0.694337 z m 0.77548,-0.39763 c 0,-0.06647 -0.0449,-0.120862 -0.0998,-0.120862 -0.0549,0 -0.0998,0.05438 -0.0998,0.120862 0,0.06647 0.0449,0.12086 0.0998,0.12086 0.0549,0 0.0998,-0.05438 0.0998,-0.12086 z m 28.53757,-0.008 c 0,-0.433003 -1.06254,-2.554998 -1.38355,-2.763094 -1.10765,-0.718026 -0.88722,1.34551 0.2375,2.223425 0.83028,0.648089 1.14605,0.796782 1.14605,0.539669 z m -25.78041,-2.312033 c -0.2715,-0.943375 -0.73444,-1.384186 -0.9742,-0.927645 -0.10024,0.190875 -0.14222,0.479527 -0.0933,0.641453 0.0489,0.161927 0.003,0.358704 -0.10188,0.437281 -0.10496,0.07858 -0.19357,4.83e-4 -0.19691,-0.17355 -0.01,-0.497509 -0.32443,0.2794 -0.48718,1.201961 -0.13992,0.79321 -0.13992,0.79321 0.95368,0.143554 1.05101,-0.624359 1.08604,-0.675875 0.89978,-1.323054 z m 22.72549,-0.169581 c -0.94456,-1.194193 -3.85495,-2.798466 -5.27685,-2.908718 -1.81039,-0.140373 -1.54728,0.220886 0.99782,1.370048 1.2348,0.557535 2.78391,1.327545 3.44246,1.71113 1.38429,0.80629 1.57898,0.766154 0.83657,-0.17246 z m -21.60748,0.530006 c 0.32572,-0.151405 0.45934,-1.545344 0.14813,-1.545344 -0.174,0 -0.63072,1.058443 -0.63072,1.461708 0,0.270045 0.0594,0.280336 0.48259,0.08363 z m 0.84783,-0.739593 c -0.0732,-0.08864 -0.13304,-0.01612 -0.13304,0.161139 0,0.177263 0.0599,0.249779 0.13304,0.161149 0.0732,-0.08863 0.0732,-0.233666 0,-0.322298 z m 1.56325,-0.322307 c 0.0678,-0.132946 0.0282,-0.241722 -0.088,-0.241722 -0.11624,0 -0.21135,0.108776 -0.21135,0.241722 0,0.132948 0.0396,0.241723 0.088,0.241723 0.0484,0 0.1435,-0.108775 0.21134,-0.241723 z m 7.57786,-2.118773 c -5.31474,-4.601567 -8.70562,-5.540623 -14.4628,-4.005266 -0.80609,0.214974 0.024,0.490165 2.42966,0.805477 3.17821,0.416571 6.8968,1.360519 9.38239,2.381679 2.22412,0.913745 3.0587,1.171325 2.65075,0.81811 z m 15.37193,-1.890116 c -0.32927,-0.319792 -0.81571,-0.581979 -1.08097,-0.582639 -0.58964,-0.0014 -0.4493,0.187459 0.64107,0.863006 1.02977,0.638003 1.24457,0.501108 0.4399,-0.280367 z m -31.97369,0.141328 c 0.83364,0 0.46015,-0.443781 -0.45046,-0.535227 -0.54135,-0.05436 -0.70448,0.02855 -0.76576,0.389205 -0.0589,0.346705 0.004,0.420271 0.25803,0.302153 0.18475,-0.08587 0.61594,-0.156131 0.95819,-0.156131 z m 2.13896,-0.839278 c 0,-0.237454 -2.14931,-0.858935 -2.46426,-0.712548 -0.52886,0.245821 -0.38174,0.546473 0.31895,0.651796 1.02362,0.153866 2.14531,0.185631 2.14531,0.06075 z m -2.6001,-1.810229 c 0.16146,-0.123683 0.24734,-0.280865 0.19085,-0.349294 -0.15463,-0.18729 -0.98333,0.122882 -0.98333,0.368044 0,0.277256 0.419,0.267343 0.79248,-0.01875 z m 16.46976,-0.0094 c -0.0678,-0.132948 -0.25274,-0.241723 -0.41091,-0.241723 -0.15816,0 -0.28756,0.108775 -0.28756,0.241723 0,0.132947 0.18491,0.241722 0.4109,0.241722 0.226,0 0.35541,-0.108775 0.28757,-0.241722 z m -2.3615,-1.611485 c -0.0732,-0.08863 -0.19291,-0.08863 -0.26609,0 -0.0732,0.08863 -0.0133,0.161149 0.13305,0.161149 0.14634,0 0.20621,-0.07252 0.13304,-0.161149 z m 13.63683,-0.564019 c 0.23326,-0.182593 0.1782,-0.235136 -0.24945,-0.238022 -0.30184,-0.0021 -0.5488,0.105074 -0.5488,0.238022 0,0.305636 0.4078,0.305636 0.79825,0 z m -14.39047,-0.832307 c -0.0539,-0.06525 -0.36158,-0.03322 -0.68381,0.07116 -0.55143,0.178632 -0.56258,0.205776 -0.18953,0.461767 0.38097,0.261436 1.1445,-0.204483 0.87334,-0.532931 z M 482.198,21.862687 c 0,-0.1038 -0.21328,-0.188728 -0.47396,-0.188728 -0.26068,0 -0.7546,-0.06799 -1.0976,-0.151077 -0.7772,-0.188277 -0.8346,0.243471 -0.0948,0.712983 0.53186,0.337538 1.66636,0.08347 1.66636,-0.373178 z m -2.31934,-1.038001 c 0.9867,-0.499368 0.90876,-0.603722 -0.32487,-0.434945 -1.20116,0.164336 -1.3514,0.254992 -0.94215,0.568492 0.38722,0.296617 0.42489,0.292645 1.26702,-0.133547 z m 6.70974,-0.09084 c 0,-0.325316 -0.63113,-1.135613 -1.24727,-1.601336 -0.71295,-0.538903 -0.69384,-0.288022 0.0667,0.875035 0.5658,0.865307 1.18061,1.243529 1.18061,0.726301 z m -7.81036,-0.765915 c 0.91748,-0.677513 0.72623,-0.761513 -0.56918,-0.249999 -0.65385,0.258182 -0.97105,0.485494 -0.79464,0.569459 0.49409,0.235173 0.66787,0.194467 1.36382,-0.31946 z m -1.068,-0.954496 c 2.1546,-1.493162 1.91121,-1.823496 -0.50093,-0.679854 -1.53769,0.729053 -1.59789,0.785042 -1.16025,1.079186 0.59677,0.4011 0.45806,0.434444 1.66118,-0.399332 z m 20.25348,-5.084293 c 0.49391,-0.525761 0.80823,-0.955204 0.69847,-0.954315 -0.40693,0.0033 -2.30446,1.475008 -2.19028,1.698772 0.21062,0.412804 0.57585,0.230545 1.49181,-0.744457 z M 486.68345,12.73945 c 0.0652,-0.12785 -0.24377,-0.456386 -0.68669,-0.730081 -0.89228,-0.551371 -0.95422,-0.504346 -0.48301,0.366733 0.32461,0.60008 0.94982,0.794289 1.1697,0.363348 z m -11.2706,41.446162 c 0,-0.06647 0.0449,-0.120862 0.0998,-0.120862 0.0549,0 0.0998,0.05439 0.0998,0.120862 0,0.06647 -0.0449,0.12086 -0.0998,0.12086 -0.0549,0 -0.0998,-0.05439 -0.0998,-0.12086 z m 9.57904,0 c 0,-0.06647 0.0449,-0.120862 0.0998,-0.120862 0.0549,0 0.0998,0.05439 0.0998,0.120862 0,0.06647 -0.0449,0.12086 -0.0998,0.12086 -0.0549,0 -0.0998,-0.05439 -0.0998,-0.12086 z"
         id="tree2" /><path
         style="fill:#000000;stroke:none;stroke-width:0.352778"
         d="m 457.81664,101.81843 c 0,0 2.84311,-5.95117 4.71824,-9.170757 1.09144,-1.38754 -0.45292,-0.91982 -2.08752,0.63222 -1.31459,1.2482 -1.53603,0.71144 -0.44483,-1.07826 0.78487,-1.28729 0.4448,-1.46414 -1.18299,-0.61518 -1.36496,0.71187 -1.51391,0.66433 -0.71991,-0.22978 0.36962,-0.41623 1.38642,-1.08628 2.25954,-1.489 1.82209,-0.84043 0.91939,-1.31875 -1.13634,-0.60212 -1.61656,0.56353 -1.5877,0.21452 0.0823,-0.99522 1.47234,-1.06656 4.83035,-2.50689 5.8446,-2.50689 0.81245,0 3.67156,-2.23445 3.49836,-2.73403 -0.20476,-0.5906 0.0602,-0.56328 2.82786,0.29156 1.30442,0.40289 2.63083,0.81132 2.94758,0.90763 0.31676,0.0963 -0.77346,-1.10531 -2.42269,-2.67026 -2.96183,-2.81045 -2.9848,-2.84538 -1.87237,-2.8479 1.05945,-0.002 1.13268,-0.086 1.23472,-1.40866 0.11192,-1.45068 4.84825,1.59888 10.32767,6.64963 0.88175,0.81276 2.08175,1.57347 2.66669,1.69045 1.50409,0.51674 3.73856,1.416163 5.05539,0.29797 0.72516,-0.72516 2.40975,-0.6635 4.19938,0.15371 0.8225,0.37559 2.16495,0.87541 2.98321,1.11072 6.49748,1.646595 15.45159,4.560465 22.36025,3.257512 -3e-4,1.253007 0.0161,5.482585 -10e-4,11.509515 z"
         id="treebase" /></g><rect
       style="display:none;opacity:0.710074;fill:#000000;fill-opacity:1;stroke:none;stroke-width:0.100544;stroke-linecap:round;stroke-linejoin:round;stroke-miterlimit:12.2;stroke-dasharray:none;stroke-dashoffset:37.7953;stroke-opacity:1;paint-order:markers stroke fill"
       id="rect67087"
       width="510.98489"
       height="100.33868"
       x="78.062202"
       y="-0.16130555" /></g></svg>
