<?xml version="1.0" encoding="UTF-8" standalone="no"?>
<!-- Created with Inkscape (http://www.inkscape.org/) -->

<svg
   width="389.36249"
   height="66.273666"
   viewBox="0 0 103.01882 17.534898"
   version="1.1"
   id="svg5"
   xml:space="preserve"
   xmlns="http://www.w3.org/2000/svg"
   xmlns:svg="http://www.w3.org/2000/svg">
   
   <style id="style132">

	
			#title {
				fill:black;
				fill-opacity:0;
				stroke-opacity:0;
		
				stroke-width:1;
				stroke-dasharray:12;
				stroke:black;
				animation: title 5s; 				
				animation-fill-mode: forwards;
				animation-delay:1s;
			
			}
			
			@keyframes title {
			  0% { stroke-dasharray: 100; fill-opacity:0; stroke-opacity:0;}
			  20% {stroke-opacity:1;}
			  100% {   stroke-dasharray: 1000; fill-opacity:1;  stroke-opacity:1;}
			}	
		
</style>
   
   
   
   
   <defs
   id="defs2" /><g
   id="layer1"
   transform="matrix(0.21883892,0,0,0.31804643,-4.0190596,-7.1665302)">
   
   <path
   id="path5074"
   style="display:inline;fill:#9191c4;fill-opacity:1;stroke:#000000;stroke-width:0.126767;stroke-linecap:round;stroke-linejoin:round;stroke-miterlimit:12.2;stroke-dashoffset:37.7953;paint-order:markers stroke fill"
   d="M 18.428723,57.279324 489.05411,57.501109 56.829166,68.265013 37.628945,62.772168 Z" />
	 
	 
	 <path
   id="path5072"
   style="display:inline;fill:#8888d6;fill-opacity:1;stroke:#000000;stroke-width:0.0743322;stroke-linecap:round;stroke-linejoin:round;stroke-miterlimit:12.2;stroke-dashoffset:37.7953;paint-order:markers stroke fill"
   d="M 27.761822,70.287982 297.52628,68.328396 H 469.00571 L 97.78473,77.628951 Z" />
   
   <path
   d="m 45.537989,61.141966 c -3.30001,-2.677488 0.569433,-6.315415 5.49764,-5.168671 1.772438,0.412427 3.346097,0.749886 3.496981,0.749886 0.427969,0 3.782126,-6.501467 7.664439,-14.856271 4.166131,-8.965591 7.768261,-14.934761 9.863989,-16.345961 2.05699,-1.385113 3.044724,-0.361938 1.249726,1.294545 -2.201382,2.031451 -5.170636,7.130016 -9.745884,16.734758 -2.279613,4.785569 -4.815027,9.752684 -5.634273,11.03806 -1.805012,2.832009 -1.133548,3.326023 5.531617,4.069769 20.66114,2.305598 35.680058,-23.15464 19.046098,-32.287154 -8.734199,-4.795273 -25.774932,-1.800056 -26.359079,4.633139 -0.191948,2.112731 -1.765462,1.986895 -2.181924,-0.174614 -1.315942,-6.829165 20.035176,-11.100962 29.65852,-5.933896 19.809341,10.636243 0.992823,39.11197 -23.135072,35.011235 -4.543256,-0.772161 -5.283447,-0.707592 -7.403899,0.645701 -2.660718,1.698091 -5.873193,1.948907 -7.548879,0.589353 z m 6.792771,-2.051938 c 0.615235,-0.807687 -3.851459,-1.85142 -5.145752,-1.202397 -0.492676,0.247055 -0.895815,0.771803 -0.895815,1.16609 0,0.912745 5.349457,0.944901 6.041567,0.03614 z m 161.39536,1.851074 c -10.67913,-3.768514 -5.98183,-23.142592 8.10612,-33.433112 9.46366,-6.912698 18.82911,-6.566738 18.82911,0.69551 0,4.093547 -4.1934,9.473182 -7.38418,9.473182 -0.938,0 -0.41142,-0.802624 1.54563,-2.354982 4.81885,-3.82261 5.21533,-10.120926 0.69496,-11.041412 -8.89275,-1.810941 -23.97325,12.803401 -25.50841,24.720167 -1.93928,15.054001 17.42353,15.739593 29.87362,1.057789 3.88504,-4.581449 10.29983,-7.810416 15.51681,-7.810416 4.88067,0 4.90033,0.178353 0.75527,6.856747 -7.80297,12.571382 -3.09232,13.120571 9.96003,1.161196 8.43323,-7.727159 12.11109,-10.137998 10.60377,-6.950883 -0.27917,0.590072 0.32843,1.190152 1.44463,1.427013 3.25274,0.69011 3.17191,2.541554 -0.33312,7.626895 -6.68195,9.694353 -4.26834,9.724915 6.65457,0.08447 8.77423,-7.743909 13.88159,-10.551116 18.25002,-10.030897 2.563,0.305213 2.78124,0.05665 6.63077,-7.547994 3.58667,-7.086219 5.47668,-9.487335 5.47668,-6.957724 0,0.498227 -2.99491,6.550429 -6.65516,13.449311 -9.96453,18.779735 -9.84187,21.830257 0.50336,12.540364 3.12537,-2.806442 7.23408,-6.48987 9.13088,-8.185431 4.89485,-4.375544 5.11408,-3.166397 0.7853,4.328322 -7.21698,12.495544 -4.23589,12.120026 9.71015,-1.223103 7.72449,-7.390427 12.56349,-8.388119 11.70387,-2.412975 -0.33767,2.345193 -0.33767,2.345193 3.18117,-0.509661 8.91466,-7.233023 13.18106,-4.180387 8.24551,5.899992 -4.00565,8.181468 -0.45388,9.167526 6.30382,1.750201 2.72201,-2.987459 5.86791,-4.171412 4.1455,-1.560042 -7.10672,10.774107 -17.70687,10.240747 -12.41499,-0.62469 6.07314,-12.469326 -4.19638,-8.146086 -14.0621,5.919941 -2.07309,2.955857 -3.67526,4.117397 -3.67526,2.664567 0,-0.318571 1.47379,-3.318402 3.27499,-6.666283 6.61077,-12.287119 2.70826,-11.650278 -10.73721,1.752204 -8.33857,8.311778 -13.71472,7.52012 -9.90226,-1.45813 1.41562,-3.333707 1.41562,-3.333707 -4.52817,1.80886 -6.78509,5.870188 -9.71001,6.644648 -10.65276,2.820504 -0.57039,-2.313928 -0.57944,-2.316938 -2.55877,-0.857083 -5.14983,3.79824 -9.37138,4.145635 -11.62716,0.956784 -1.57176,-2.222374 -1.57176,-2.222374 -5.18577,0.426622 -7.19548,5.274315 -9.52239,1.164668 -3.93254,-6.945362 1.88513,-2.734815 3.28536,-4.998619 3.11182,-5.030688 -0.17458,-0.03195 -0.94928,-0.167426 -1.72419,-0.300829 -0.77439,-0.133459 -1.84551,-0.364312 -2.37974,-0.513102 -0.53391,-0.148852 -4.5168,2.932053 -8.85061,6.846392 -9.23932,8.345229 -11.79579,9.517613 -14.58331,6.688061 -1.88366,-1.912013 -1.89024,-1.912699 -4.23398,-0.448769 -4.24328,2.650128 -10.32921,1.625773 -10.32921,-1.738558 0,-1.269407 -0.30942,-1.218532 -3.10225,0.509734 -6.68381,4.136321 -14.00442,5.28036 -20.07715,3.137464 z m 33.76589,-4.477694 c 2.57763,-2.09135 4.88485,-5.215084 8.95254,-12.120464 2.2992,-3.903626 -11.44148,2.436048 -14.91681,6.882197 -5.55489,7.106634 -1.12913,10.993564 5.96427,5.238267 z m 45.52327,1.027688 c 2.9698,-1.469169 8.72801,-7.907802 10.55073,-11.797349 1.63521,-3.489061 -5.62847,-2.103931 -11.13964,2.124302 -8.27112,6.345778 -7.81545,13.830609 0.58891,9.673047 z m -187.97172,2.606035 c -0.81155,-0.658465 -1.47556,-1.717442 -1.47556,-2.353302 0,-0.856685 -0.74822,-0.645282 -2.88904,0.816287 -4.950238,3.379581 -10.256928,2.334669 -10.256928,-2.019637 0,-6.670541 10.024028,-14.292651 18.796608,-14.292651 4.52123,0 4.51257,0.662402 -0.0955,7.293404 -9.785468,14.081248 0.55135,11.202146 15.8184,-4.405888 3.74364,-3.8272 5.44573,-4.605899 4.64633,-2.125653 -0.35554,1.103194 -0.0284,1.523717 1.18402,1.523717 3.99105,0 4.14083,2.011877 0.54488,7.319756 -7.43094,10.968675 -2.04007,8.949942 12.37836,-4.635337 5.9846,-5.638769 6.98914,-5.110952 3.07268,1.614537 -7.65622,13.147392 -3.44305,12.671334 10.14631,-1.146467 5.64455,-5.739556 10.88374,-6.546515 10.71214,-1.649925 -0.0849,2.409558 -0.0849,2.409558 4.12231,-0.736595 8.16714,-6.108083 12.00939,-2.949202 7.46059,6.133737 -4.29299,8.571971 -1.9389,9.735258 5.583,2.758808 5.10534,-4.735354 6.79623,-4.19438 1.93491,0.61908 -9.02154,8.932738 -15.05189,6.552768 -9.44774,-3.728688 6.18445,-11.346147 -2.79694,-8.553227 -12.30734,3.827213 -2.37569,3.092622 -4.69834,5.62295 -5.16126,5.62295 -1.12098,0 -1.27263,0.404152 2.43321,-6.483635 5.40291,-10.04215 3.79233,-12.639921 -3.45773,-5.576871 -14.64656,14.268896 -22.1487,16.612742 -16.83137,5.258618 1.8314,-3.910565 1.8314,-3.910565 -4.23429,1.405035 -10.7525,9.422809 -16.53186,7.305379 -8.69462,-3.185526 3.2816,-4.392699 3.30491,-4.66735 0.485,-5.709805 -2.06657,-0.763981 -2.75777,-0.328945 -9.59591,6.039449 -8.96993,8.353738 -12.15004,10.025419 -14.87141,7.817389 z m -3.95985,-4.113276 c 5.36462,-4.817854 9.66361,-12.212305 7.09995,-12.212305 -3.36676,0 -8.281198,2.338571 -11.675238,5.55574 -7.75893,7.354567 -3.34789,13.772165 4.575288,6.656565 z M 152.5617,32.597233 c 0.45691,-1.911319 2.65116,-2.173762 2.65116,-0.317072 0,0.935825 -0.60638,1.587196 -1.47735,1.587196 -0.87446,0 -1.35352,-0.518332 -1.17381,-1.270124 z m 172.25747,0.662363 c -0.90353,-1.185923 1.11934,-2.883835 2.29718,-1.928278 0.59595,0.483742 0.79983,1.252256 0.45293,1.707809 -0.7415,0.973419 -2.09393,1.081841 -2.75011,0.22048 z"
   id="title" />
	 
	 </g></svg>
