

<svg

   viewBox="0 0 362.15024 43.44038"
   version="1.1"
   id="svg5"
   xml:space="preserve"
   xmlns="http://www.w3.org/2000/svg"
   xmlns:svg="http://www.w3.org/2000/svg">
   
   	<style>	
			#title {
				fill:white;
				fill-opacity:0;
				stroke-opacity:0;
		
				stroke-width:1;
				stroke-dasharray:12;
				stroke:white;
				animation: title 5s; 				
				animation-fill-mode: forwards;
				animation-delay:1s;
			
			}
			
			@keyframes title {
			  0% { stroke-dasharray: 100; fill-opacity:0; stroke-opacity:0;}
			  20% {stroke-opacity:1;}
			  100% {   stroke-dasharray: 1000; fill-opacity:1;  stroke-opacity:1;}
			}	
		</style>   
   
   
   <defs
     id="defs2" /><g
     id="layer1"
     transform="translate(-12.416926,-20.577411)"><path
           d="m 14.602466,62.101446 c -3.738649,-2.810339 0.645121,-6.628779 6.228335,-5.425127 2.008045,0.432905 3.790841,0.787099 3.961771,0.787099 0.484866,0 4.284854,-6.824043 8.683191,-15.593374 4.71987,-9.410399 8.800774,-15.67575 11.175063,-17.156962 2.330383,-1.453817 3.449417,-0.379874 1.4158,1.358771 -2.493944,2.132238 -5.857882,7.483798 -11.041255,17.56505 -2.5826,5.023001 -5.455011,10.236582 -6.383143,11.585735 -2.044915,2.972506 -1.284204,3.491012 6.266865,4.271682 C 58.316416,61.914284 75.33155,35.190853 56.486688,25.605252 46.591606,20.572026 27.285893,23.715877 26.62409,30.468239 26.406572,32.685804 24.623974,32.553737 24.152147,30.285116 22.661341,23.117107 46.850296,18.633363 57.752758,24.0568 c 22.442281,11.163938 1.124784,41.0525 -26.210096,36.748317 -5.147107,-0.810467 -5.985695,-0.742713 -8.387956,0.67771 -3.014388,1.782367 -6.653863,2.045624 -8.55224,0.618619 z m 7.695632,-2.153745 c 0.697012,-0.84776 -4.363398,-1.943279 -5.82971,-1.262065 -0.558182,0.259316 -1.014878,0.810098 -1.014878,1.223956 0,0.958033 6.060496,0.991777 6.844588,0.03811 z M 205.14531,61.89061 c -12.09865,-3.955493 -6.77685,-24.2908 9.18366,-35.091897 10.72149,-7.255654 21.33185,-6.892547 21.33185,0.730018 0,4.296643 -4.75083,9.943183 -8.3659,9.943183 -1.06274,0 -0.46595,-0.842425 1.75113,-2.471798 5.45943,-4.012286 5.90866,-10.623072 0.78749,-11.589253 -10.07497,-1.900791 -27.15978,13.438646 -28.899,25.946672 -2.19702,15.800884 19.73942,16.520515 33.84419,1.110265 4.40139,-4.80876 11.66896,-8.197928 17.57935,-8.197928 5.52944,0 5.55167,0.187113 0.85552,7.196942 -8.83993,13.195109 -3.50317,13.771535 11.28395,1.218788 9.5542,-8.110522 13.72083,-10.640977 12.01309,-7.295721 -0.31603,0.619346 0.37231,1.24919 1.63681,1.497792 3.68499,0.724373 3.59332,2.66766 -0.37754,8.00532 -7.57,10.175323 -4.83566,10.207408 7.53925,0.08846 9.94024,-8.128121 15.72643,-11.074598 20.67572,-10.528567 2.90365,0.320349 3.15088,0.0596 7.51178,-7.922487 4.06354,-7.437798 6.20483,-9.958044 6.20483,-7.302932 0,0.522946 -3.39301,6.875416 -7.53997,14.116605 -11.28865,19.711465 -11.14985,22.913354 0.57049,13.162546 3.54065,-2.945676 8.19571,-6.811877 10.34456,-8.59156 5.54523,-4.592626 5.79379,-3.323489 0.88969,4.543085 -8.17632,13.115497 -4.79888,12.721354 11.00081,-1.283784 8.75104,-7.75711 14.23331,-8.804299 13.2593,-2.532701 -0.38237,2.461555 -0.38237,2.461555 3.60401,-0.53495 10.09966,-7.591898 14.93296,-4.387803 9.34156,6.192718 -4.53806,8.587389 -0.51441,9.622377 7.14182,1.837031 3.08365,-3.135681 6.64782,-4.37836 4.69639,-1.637433 -8.05136,11.308657 -20.06049,10.748823 -14.06522,-0.655684 6.88031,-13.087979 -4.75389,-8.550256 -15.93104,6.213652 -2.34876,3.102499 -4.16394,4.32168 -4.16394,2.796759 0,-0.334376 1.66963,-3.483036 3.71032,-6.997026 7.48952,-12.896738 3.0683,-12.228294 -12.16439,1.839138 -9.44685,8.724174 -15.53753,7.89324 -11.21824,-1.530473 1.6038,-3.499096 1.6038,-3.499096 -5.13014,1.898612 -7.68677,6.16144 -11.00061,6.974328 -12.06854,2.960434 -0.6462,-2.428724 -0.65638,-2.431879 -2.89887,-0.89959 -5.83448,3.986687 -10.61715,4.351302 -13.17261,1.004238 -1.78096,-2.332625 -1.78096,-2.332625 -5.87513,0.447796 -8.15184,5.536007 -10.78796,1.222448 -4.45507,-7.289945 2.13554,-2.870511 3.7219,-5.246642 3.52529,-5.280293 -0.19661,-0.03364 -1.07561,-0.175749 -1.95325,-0.315759 -0.87763,-0.140025 -2.09083,-0.382371 -2.69602,-0.538562 -0.60515,-0.156195 -5.11736,3.077544 -10.02708,7.186079 -10.46739,8.759279 -13.36356,9.989833 -16.52176,7.019896 -2.13409,-2.006886 -2.14137,-2.007603 -4.79682,-0.471043 -4.8072,2.781608 -11.70186,1.706439 -11.70186,-1.824815 0,-1.33238 -0.3506,-1.278987 -3.51463,0.535023 -7.57226,4.341552 -15.86602,5.542333 -22.74568,3.293139 z m 38.25395,-4.699847 c 2.92021,-2.195133 5.53413,-5.473855 10.14223,-12.721823 2.60499,-4.097314 -12.96222,2.556901 -16.89938,7.223656 -6.29308,7.45922 -1.2791,11.539004 6.75715,5.498167 z m 51.57387,1.078676 c 3.36463,-1.542069 9.88833,-8.300171 11.95323,-12.382675 1.85228,-3.662173 -6.37663,-2.208325 -12.6203,2.229693 -9.3705,6.660619 -8.85433,14.51682 0.66707,10.152982 z m -212.955921,2.73533 c -0.919408,-0.691136 -1.671676,-1.802664 -1.671676,-2.470066 0,-0.899188 -0.847679,-0.677294 -3.273031,0.856779 -5.608238,3.547266 -11.620232,2.450505 -11.620232,-2.119853 0,-7.001493 11.356355,-15.001757 21.294941,-15.001757 5.122179,0 5.112368,0.695259 -0.108156,7.655273 -11.086086,14.779878 0.624652,11.75793 17.920915,-4.624476 4.24121,-4.017107 6.16956,-4.834449 5.2639,-2.231135 -0.40283,1.15794 -0.0322,1.599319 1.34138,1.599319 4.52153,0 4.6912,2.111698 0.6173,7.682924 -8.41861,11.51287 -2.31121,9.393988 14.02359,-4.865302 6.78002,-5.91855 7.91803,-5.364549 3.48102,1.694619 -8.67372,13.799689 -3.90062,13.300009 11.4949,-1.203362 6.39489,-6.024299 12.33045,-6.871285 12.13605,-1.731772 -0.0957,2.529113 -0.0957,2.529113 4.67025,-0.773129 9.2527,-6.41114 13.60561,-3.09553 8.45219,6.438041 -4.86357,8.997282 -2.19654,10.218291 6.325,2.895699 5.78406,-4.970286 7.69967,-4.402479 2.19219,0.649794 -10.22067,9.375926 -17.05256,6.877876 -10.70356,-3.913698 7.00647,-11.909074 -3.16861,-8.977576 -13.94317,4.017107 -2.69148,3.246069 -5.32277,5.901942 -5.84731,5.901942 -1.26993,0 -1.44177,0.424198 2.75665,-6.805322 6.12108,-10.540387 4.29642,-13.267044 -3.91726,-5.85357 -16.5934,14.976838 -25.09259,17.436982 -19.06853,5.519532 2.07483,-4.104612 2.07483,-4.104612 -4.79707,1.474717 -12.18168,9.890337 -18.72919,7.667861 -9.85025,-3.343546 3.71776,-4.610664 3.74417,-4.898919 0.54947,-5.993099 -2.34128,-0.801881 -3.12435,-0.345269 -10.871346,6.339084 -10.162175,8.768213 -13.764981,10.522825 -16.848075,8.205257 z M 77.53102,56.687411 c 6.077692,-5.056891 10.948056,-12.818217 8.043642,-12.818217 -3.814254,0 -9.381883,2.454603 -13.227056,5.831389 -8.7902,7.719458 -3.792863,14.455454 5.183414,6.986828 z m 58.32025,-24.54694 c 0.51758,-2.006161 3.00344,-2.281626 3.00344,-0.332817 0,0.982251 -0.68689,1.665958 -1.67368,1.665958 -0.99066,0 -1.53337,-0.544066 -1.32976,-1.333141 z m 195.15294,0.695216 c -1.02338,-1.244749 1.26804,-3.026937 2.60234,-2.023962 0.67548,0.507767 0.9065,1.314414 0.5134,1.792551 -0.84004,1.021719 -2.37236,1.135529 -3.11574,0.23142 z"
       id="title" /></g></svg>
