<?xml version="1.0" encoding="UTF-8" standalone="no"?>
<!-- Created with Inkscape (http://www.inkscape.org/) -->

<svg
   width="1746.5443"
   height="325.35016"
   viewBox="0 0 462.10651 86.082232"
   version="1.1"
   id="svg5"
   xml:space="preserve"
   sodipodi:docname="partouche.svg"
   inkscape:version="1.2.1 (9c6d41e410, 2022-07-14)"
   xmlns:inkscape="http://www.inkscape.org/namespaces/inkscape"
   xmlns:sodipodi="http://sodipodi.sourceforge.net/DTD/sodipodi-0.dtd"
   xmlns="http://www.w3.org/2000/svg"
   xmlns:svg="http://www.w3.org/2000/svg"><sodipodi:namedview
     id="namedview14"
     pagecolor="#ffffff"
     bordercolor="white"
     borderopacity="0"

     showgrid="false" />
     
     
     

     
     
     	<style>
		
		
			#black1, #black2 {
				stroke: #325981ff;
				fill: #325981ff;
				stroke-width:0.11;
			}
			
			  
			#white1, #white2{
				
			  	stroke-linecap:square;
			 	stroke-miterlimit:12.2;
			  	stroke-dasharray:none;
				fill:none;
			  	paint-order:markers stroke fill;

				stroke: rgba(255, 255, 255, 1);		

				stroke-width: 12;
				stroke-dasharray: 1600; 	
		  		stroke-dashoffset: 0;			
		  		
		  		animation: move 3s ; 				
				animation-fill-mode: forwards;	
			}
			
			 #white2{
			    animation: move 2s; 	
				animation-delay: 2s;
				animation-fill-mode: forwards;	
			 }
			
			
			@keyframes move {
			  from { stroke-dashoffset: 0 }
			  to {   stroke-dashoffset: 1650 }
			}
				
		
			
			
		</style>
     
	 
	    
   <defs
     id="defs2" /><g
     id="layer2"
     style="display:inline"
     transform="matrix(0.94697327,0,0,0.94697327,-9.035417,-8.9386792)">
	 <path
      
       d="m 25.449998,98.071671 c -7.290554,-0.975693 -11.961917,-5.72985 -11.123523,-11.320663 0.67646,-4.510962 3.44876,-5.017663 6.162,-1.126237 6.752941,9.685298 21.383979,5.844167 32.259102,-8.469079 2.935117,-3.863048 6.321835,-10.159514 13.904077,-25.849968 7.249405,-15.001689 10.515008,-20.936521 14.323943,-26.031983 2.589583,-3.464257 2.491953,-3.592788 -2.69554,-3.54886 -9.251215,0.07834 -20.145442,7.156077 -24.601166,15.982818 -3.964433,7.853492 -4.060904,12.829778 -0.402115,20.742184 3.523227,7.619244 -5.447338,6.514001 -9.278943,-1.143234 -9.062219,-18.110295 12.775655,-42.784588 36.660544,-41.42221 8.423765,0.480487 8.774747,0.455307 12.322995,-0.884083 6.756345,-2.550377 14.255828,-1.387259 14.255828,2.210978 0,1.195119 -0.71152,1.574796 -3.04352,1.624069 -2.03244,0.04294 -6.167182,1.45852 -5.867045,2.00865 0.122138,0.223873 1.353416,1.34855 2.736165,2.499281 16.34635,13.603573 11.29926,39.961579 -9.489066,49.555914 -10.488444,4.840674 -26.767721,3.711319 -26.136153,-1.813169 l 0.145876,-1.276087 6.905164,-0.01937 c 17.849302,-0.05006 28.758999,-8.902828 29.736629,-24.130057 0.49952,-7.780429 -5.511675,-20.622777 -9.653026,-20.622777 -2.575391,0 -10.331243,11.76575 -21.878032,33.189339 C 65.025203,68.745218 60.164439,76.863311 57.058201,81.000985 48.752585,92.064514 35.210911,99.37797 25.449991,98.071663 Z M 138.64455,92.528033 c -3.26136,-1.155433 -4.72823,-4.269689 -3.8507,-8.175297 0.55756,-2.481613 -0.2473,-2.861687 -2.51903,-1.189532 -16.39894,12.070803 -27.12911,12.315205 -26.9488,0.613832 0.2573,-16.697314 27.92006,-31.571529 37.89021,-20.373495 2.18982,2.459498 2.35228,2.432957 5.88381,-0.961217 4.40884,-4.23737 6.69925,-4.203464 6.69439,0.09909 -0.002,1.777088 -0.61225,2.812189 -5.95224,10.09617 -8.55178,11.664975 -9.05923,12.611999 -7.56075,14.110472 1.95424,1.954249 8.37786,-1.370608 15.17492,-7.854527 18.36811,-17.521912 21.05996,-20.574742 21.05996,-23.884202 0,-3.108362 2.88742,-9.033296 4.40224,-9.033296 2.02436,0 3.52481,5.369118 2.45346,8.779442 -1.19873,3.815887 0.0432,4.852526 5.30794,4.430624 7.58567,-0.607892 6.74876,4.474097 -2.33193,14.160501 -9.95172,10.615492 -10.57924,15.579075 -1.64108,12.980688 4.89684,-1.42355 8.44666,-4.372003 22.91087,-19.029439 15.60777,-15.816293 14.68758,-14.3864 10.26324,-15.948043 -4.39559,-1.551501 -5.72518,-2.433641 -5.72518,-3.798521 0,-1.582246 0.17826,-1.6026 7.05988,-0.806155 8.20065,0.949114 7.32041,1.441256 20.23751,-11.31461 13.60362,-13.433793 14.97189,-14.250689 14.46262,-8.634715 -0.33444,3.688591 -1.07762,4.80679 -8.21939,12.367281 -3.53959,3.747121 -6.14024,6.812947 -5.77923,6.812947 0.95855,0 6.25693,-1.681895 10.09511,-3.204533 l 3.33068,-1.321311 0.81756,1.009646 c 3.5501,4.384165 -6.34633,10.552249 -17.05705,10.631053 -4.97606,0.03663 -4.79133,-0.09787 -19.49582,14.192707 -13.49306,13.113227 -14.80725,14.658504 -14.80725,17.41089 0,7.87026 16.94288,1.049983 29.84813,-12.015223 19.79442,-20.039776 46.30034,-17.658282 35.35585,3.176643 -0.69872,1.330163 -1.348,2.597653 -1.44282,2.816644 -1.42243,3.285218 9.72445,-1.454341 13.59828,-5.781867 5.23122,-5.843912 13.91943,-13.549814 15.27706,-13.549814 4.20817,0 2.89859,4.659018 -3.07516,10.940311 -11.68424,12.285804 -13.43564,18.076336 -4.93398,16.312816 6.87932,-1.426989 21.77782,-12.987771 30.54079,-23.698741 3.93254,-4.806737 5.56086,-4.808185 5.56086,-0.0048 0,3.405646 -0.18057,3.752343 -5.34361,10.260878 -6.7611,8.523019 -8.61893,12.143443 -7.04115,13.721236 2.57889,2.578878 16.85698,-7.614535 22.61206,-16.143197 9.2702,-13.737825 28.9412,-15.112085 31.01126,-2.16652 0.98037,6.130828 -4.35998,10.470303 -8.32595,6.76553 l -1.48468,-1.386911 1.3262,-1.061095 c 0.7294,-0.583605 1.45372,-1.062095 1.60956,-1.063311 0.64749,-0.0051 1.73284,-3.142568 1.46133,-4.224349 -2.20227,-8.774522 -21.99829,3.437441 -22.15257,13.665709 -0.14249,9.449151 18.36418,8.419352 31.7793,-1.768349 5.28889,-4.016499 15.96778,-15.075615 27.41458,-28.390718 10.91265,-12.693778 25.69808,-28.293952 26.81306,-28.290582 4.54819,0.01368 2.33805,3.998688 -10.65998,19.22014 -12.04,14.099535 -14.91244,18.136625 -12.50572,17.576152 15.46625,-3.601739 19.39913,7.785364 7.09074,20.530303 -6.47169,6.701198 -6.26353,8.474077 0.72794,6.199789 8.25934,-2.686731 10.32778,-4.272608 23.70004,-18.171024 12.00965,-12.482146 34.8918,-11.931305 31.20488,0.751191 -2.54207,8.744517 -14.93386,13.782237 -25.32292,10.294733 -5.23919,-1.758732 -5.65919,-1.605434 -5.65919,2.065587 0,13.893478 34.08435,6.300175 44.70274,-9.958854 3.1667,-4.848959 7.51926,-4.143723 4.97857,0.806666 -9.97587,19.437256 -50.69456,28.289084 -55.55199,12.076433 -0.78466,-2.618969 -1.14911,-2.540603 -6.43449,1.383709 -19.14121,14.212026 -33.64528,5.277622 -17.28963,-10.650288 7.68469,-7.48371 8.56302,-11.582857 2.48186,-11.582857 -6.87533,0 -11.24193,2.865929 -25.62037,16.815397 -11.45832,11.116473 -17.63967,14.672908 -19.45314,11.19236 -0.30242,-0.580441 -0.58829,-1.104214 -0.63524,-1.163943 -0.0469,-0.05974 -2.47559,0.408166 -5.39695,1.039774 -12.44596,2.690832 -19.01071,0.811157 -22.0997,-6.327812 -1.25614,-2.903074 -1.63858,-2.937761 -4.4565,-0.404203 -11.80286,10.611784 -23.0735,11.432176 -23.08045,1.680025 -8.2e-4,-1.286372 -0.12838,-2.338851 -0.28317,-2.338851 -0.43143,0 -3.16843,1.745457 -6.66098,4.247873 -10.20137,7.309271 -21.0944,5.850881 -21.13048,-2.829019 -0.0102,-2.685909 -0.45339,-3.034183 -3.01818,-2.376846 -1.20506,0.308848 -4.02563,0.514491 -6.26793,0.456983 l -4.07689,-0.104558 -3.33145,2.326013 c -13.2542,9.254095 -29.58073,10.028152 -31.83617,1.509392 -0.64429,-2.433498 -0.81387,-2.413155 -6.56471,0.787427 -11.82021,6.578455 -19.17997,6.790542 -23.09804,0.665638 -1.89109,-2.956258 -1.69843,-2.940001 -5.26807,-0.444648 -19.11417,13.361755 -27.66264,-1.374358 -11.45237,-19.741937 4.09558,-4.640606 4.08055,-4.527631 0.75302,-5.658695 l -2.44241,-0.830196 -12.17087,11.788511 c -14.87662,14.409261 -16.38944,15.752468 -19.50375,17.317005 -4.21791,2.118945 -7.89581,2.647801 -10.9324,1.572009 z m 107.93387,-5.664822 c 3.32612,-1.361468 6.77865,-3.413933 9.23119,-5.487773 l 1.78199,-1.506808 -2.04745,-2.133606 c -2.65412,-2.765811 -3.70883,-4.349396 -4.5366,-6.811295 -1.14657,-3.410212 -3.76455,-2.070192 -10.94106,5.600234 -9.22029,9.854864 -5.75317,15.359722 6.51193,10.339248 z M 121.68427,85.022582 c 10.02479,-4.826313 20.78017,-14.94859 18.97942,-17.86224 -4.28315,-6.930294 -21.23009,1.169249 -27.65049,13.215158 -3.3301,6.247911 0.77559,8.448268 8.67107,4.647082 z M 263.54209,73.732847 c 5.77579,-6.757115 5.19929,-9.938509 -1.80039,-9.935365 -7.62068,0.0036 -9.1207,3.822096 -3.89299,9.910586 2.3694,2.759522 3.35213,2.7638 5.69338,0.02477 z m 183.95784,1.630106 c 11.31766,-1.836607 18.53988,-11.81349 7.96166,-10.998312 -5.62957,0.433828 -11.17631,3.115861 -16.29302,7.878286 -2.25866,2.102238 -2.08851,2.664963 0.95553,3.160235 2.86668,0.466401 4.3022,0.458575 7.37583,-0.04022 z"
       id="black2" />
	   <path
            d="m 267.63085,44.742728 c -1.85423,0.704662 -3.89024,-0.397008 -5.74249,0.193145 -7.29517,2.324341 -14.0762,4.568465 -21.75577,4.825454 -8.62238,0.288538 -17.27143,-0.429305 -25.7419,-1.963154 -4.61172,-0.835099 -9.34891,-4.505054 -12.56847,-7.793172 -2.57236,-2.627141 -3.6256,-7.536153 -7.21098,-8.330762 -9.71606,-2.153323 -19.5056,-4.407663 -29.50345,-4.570508 -6.99295,-0.113904 -14.50983,0.236349 -20.48994,4.006725 -5.63566,3.553204 -9.28417,9.316148 -13.89726,14.047685 -11.94509,12.251791 -10.57489,14.741311 -14.47262,19.42148 -2.33532,2.80412 -5.50898,4.771401 -8.12778,7.305366 -3.71476,3.594424 -7.02841,7.708985 -11.481276,10.453985 -2.933536,1.808402 -6.457958,1.831483 -9.912775,1.97695 -0.836402,0.03523 -1.695121,-0.680599 -2.46144,-0.08136 -2.267304,1.772933 -5.425352,2.166999 -8.11587,1.185144 -4.370309,-1.594866 -7.066868,-5.831757 -8.573401,-10.135962 -0.222997,-0.637109 -0.33764,-1.026399 0.514197,-1.279105 5.760703,-1.708971 11.933998,-1.211251 17.650248,-3.106452 2.718349,-0.901258 4.703933,-3.12097 7.200726,-4.522965 6.144066,-3.450009 8.247271,-9.165881 9.994461,-15.96228 1.10155,-4.284908 2.00925,-10.060959 -0.28266,-13.884405 -3.85838,-6.436695 -7.314682,-11.636336 -14.089443,-15.006763 -1.4821,-0.737341 -3.12183,-1.101847 -4.615903,-1.801352 -3.587687,-1.679708 -7.736841,-1.842328 -11.548617,-0.867399 -3.969919,1.015377 -7.85233,2.543831 -11.264355,4.771041 -6.28776,4.104352 -11.967165,9.543227 -15.165201,16.422061 -1.300709,2.797767 -2.30421,5.762108 -2.563401,8.862582 -0.420246,5.027032 1.322283,10.207489 4.831732,13.87039 0.316939,0.330799 0.646525,0.649464 0.987445,0.955485"
       id="white2"
       transform="translate(2.280006,-1.140003)" />
	   <path
      
       d="M 25.449997,98.071671 C 18.159443,97.095975 13.48808,92.341823 14.326474,86.751006 c 0.67646,-4.510961 3.448761,-5.017662 6.162002,-1.126238 6.752939,9.685301 21.383978,5.844171 32.2591,-8.469077 2.935118,-3.863047 6.321834,-10.159514 13.904076,-25.849967 7.249406,-15.001688 10.515011,-20.936522 14.323944,-26.031984 4.447126,-6.381923 9.468003,-8.956003 12.005779,-10.273384 6.756339,-2.550377 14.255825,-1.38726 14.255825,2.210979 0,1.195118 -0.71153,1.574794 -3.04353,1.624068 -2.03244,0.04294 -4.928438,1.170045 -5.95188,1.754114 -4.141815,2.544539 -0.08101,-0.151833 -5.7035,3.752547 -2.26569,0.660587 -10.29731,12.461479 -21.8441,33.885068 -5.668988,10.51809 -10.529751,18.636183 -13.635989,22.773856 -8.305616,11.063527 -21.84729,18.37699 -31.60821,17.070681 z M 138.64456,92.52803 c -3.26138,-1.155433 -4.72825,-4.269686 -3.85072,-8.175295 0.55759,-2.481614 -0.24729,-2.861687 -2.51902,-1.189533 -16.39894,12.070803 -27.12911,12.315209 -26.9488,0.613833 0.2573,-16.697313 27.92005,-31.571529 37.89021,-20.373495 2.18981,2.459499 2.35228,2.432957 5.8838,-0.961217 4.40885,-4.23737 6.69925,-4.203463 6.6944,0.09909 -0.002,1.777087 -0.61225,2.812189 -5.95225,10.096171 -8.55177,11.664973 -9.05922,12.611997 -7.56074,14.110471 1.95424,1.95425 8.37785,-1.37061 15.17492,-7.854526 18.36811,-17.521914 21.05996,-20.574743 21.05996,-23.884203 0,-3.108362 2.88742,-9.033296 4.40223,-9.033296 2.02437,0 3.5248,5.369117 2.45347,8.77944 -1.19874,3.815887 0.0432,4.852527 5.30794,4.430626 7.58566,-0.607892 6.74877,4.474097 -2.33194,14.1605 -9.95171,10.615493 -10.57923,15.579076 -1.64107,12.980685 4.89683,-1.423547 8.44666,-4.371999 22.91087,-19.029435 5.76598,-5.716921 6.57383,-6.730464 11.0127,-11.272003 2.15096,-2.200719 -4.07598,4.246836 3.10601,-3.246197 12.76127,-12.422441 13.41371,-13.023017 17.71674,-17.34913 13.66816,-13.368108 14.97188,-14.250688 14.46262,-8.634715 -0.33445,3.688591 -1.07762,4.806791 -8.21939,12.367282 -3.5396,3.747121 -5.52561,6.556016 -5.77923,6.812947 -14.09143,14.275536 -14.14802,14.439092 -22.30952,21.307561 -13.49306,13.113226 -14.80725,14.658505 -14.80725,17.410891 0,7.870261 16.94288,1.04998 29.84814,-12.015223 19.79441,-20.039777 46.30033,-17.658283 35.35584,3.176643 -0.69873,1.330162 -1.348,2.597652 -1.44282,2.816643 -1.42244,3.285218 9.72445,-1.45434 13.59827,-5.781868 5.23122,-5.843911 13.91944,-13.549812 15.27708,-13.549812 4.20816,0 2.89857,4.659017 -3.07518,10.940311 -11.68423,12.285803 -13.43563,18.076339 -4.93398,16.312817 6.87933,-1.42699 21.77782,-12.987772 30.54079,-23.698743 3.93255,-4.806737 5.56087,-4.808185 5.56087,-0.0049 0,3.405646 -0.18058,3.752343 -5.34361,10.260879 -6.7611,8.523018 -8.61894,12.14344 -7.04115,13.721229 2.57889,2.578883 16.85697,-7.61453 22.61206,-16.143193 9.27019,-13.737823 28.94118,-15.112084 31.01126,-2.166519 0.98036,6.130828 -4.35999,10.470302 -8.32596,6.765529 l -1.48467,-1.386909 1.32619,-1.061097 c 0.7294,-0.583605 1.45371,-1.062094 1.60957,-1.063311 0.64749,-0.0051 1.73284,-3.142567 1.46133,-4.224348 -2.20227,-8.774521 -21.99829,3.43744 -22.15258,13.665709 -0.14248,9.449152 18.36419,8.419351 31.7793,-1.76835 5.2889,-4.016499 15.96779,-15.075613 27.41458,-28.390717 10.91265,-12.693778 25.69808,-28.293952 26.81307,-28.290582 4.54818,0.01368 2.33804,3.998687 -10.65999,19.22014 -12.03999,14.099535 -14.91244,18.136624 -12.50572,17.576152 15.46626,-3.601739 19.39914,7.785363 7.09073,20.530301 -6.47167,6.701198 -6.26352,8.474081 0.72795,6.199789 8.25935,-2.68673 10.32778,-4.272606 23.70005,-18.171023 12.00963,-12.482145 34.89179,-11.931304 31.20489,0.751193 -2.54208,8.744516 -14.93387,13.782236 -25.32294,10.294732 -5.23918,-1.758732 -5.65919,-1.605435 -5.65919,2.065586 0,13.893477 34.08436,6.300171 44.70274,-9.958854 3.1667,-4.848957 7.51927,-4.143721 4.97858,0.806666 -9.97587,19.437254 -50.69457,28.289078 -55.552,12.076434 -0.78465,-2.61897 -1.14911,-2.540602 -6.43448,1.383704 -19.14121,14.212027 -33.6453,5.277622 -17.28964,-10.650283 7.6847,-7.48371 8.56303,-11.582857 2.48186,-11.582857 -6.87533,0 -11.24193,2.865928 -25.62036,16.815398 -11.45833,11.116468 -17.63968,14.672899 -19.45314,11.192353 -0.30243,-0.580434 -0.58829,-1.104207 -0.63525,-1.163938 -0.0469,-0.05973 -2.47558,0.408162 -5.39695,1.039771 -12.44596,2.690837 -19.01071,0.811155 -22.09969,-6.32781 -1.25614,-2.903074 -1.63859,-2.937759 -4.45651,-0.404201 -11.80285,10.611781 -23.07349,11.432169 -23.08043,1.680019 -8.9e-4,-1.286366 -0.12839,-2.338846 -0.2832,-2.338846 -0.43141,0 -3.1684,1.745452 -6.66096,4.247869 -10.20138,7.309277 -21.09441,5.850885 -21.13048,-2.829014 -0.0105,-2.685909 -0.4534,-3.034183 -3.01819,-2.376846 -1.20506,0.308847 -4.02563,0.514492 -6.26794,0.456983 l -4.07687,-0.104562 -3.33145,2.326012 c -13.25421,9.254096 -29.58074,10.028151 -31.83618,1.509389 -0.64428,-2.433493 -0.81386,-2.413151 -6.56469,0.787433 -11.82022,6.578447 -19.17998,6.79054 -23.09804,0.665631 -1.89109,-2.956257 -1.69844,-2.939996 -5.26808,-0.444649 -19.11417,13.361758 -27.66264,-1.374358 -11.45236,-19.74193 4.09556,-4.640605 4.08053,-4.527632 0.753,-5.658694 l -2.44241,-0.830197 -12.17086,11.788511 c -14.87662,14.409269 -16.38944,15.75247 -19.50375,17.317007 -4.21791,2.118951 -7.89581,2.647804 -10.93239,1.572016 z m 107.93386,-5.664817 c 3.32612,-1.361472 6.77864,-3.413937 9.23119,-5.487776 l 1.78198,-1.506808 -2.04745,-2.133607 c -2.6541,-2.76581 -3.70884,-4.349394 -4.5366,-6.811294 -1.14656,-3.410212 -3.76454,-2.070193 -10.94106,5.600234 -9.22028,9.854859 -5.75317,15.359719 6.51194,10.339251 z M 121.68427,85.022581 c 10.0248,-4.826314 20.78016,-14.948589 18.97942,-17.862239 -4.28315,-6.930295 -21.23009,1.169248 -27.6505,13.215157 -3.3301,6.247913 0.77559,8.448268 8.67108,4.647082 z M 263.54209,73.732845 c 5.77579,-6.757113 5.19929,-9.938507 -1.80039,-9.935363 -7.62069,0.0036 -9.12071,3.822096 -3.89299,9.910585 2.3694,2.759522 3.35213,2.763799 5.69338,0.02478 z m 183.95783,1.630106 c 11.31766,-1.836605 18.53989,-11.813489 7.96166,-10.99831 -5.62957,0.433827 -11.17629,3.115859 -16.29302,7.878285 -2.25866,2.10224 -2.08852,2.664964 0.95553,3.160236 2.86668,0.466401 4.30219,0.458573 7.37583,-0.04023 z"
       id="black1" />
	   <path
           d="m 488.05977,60.821167 c -8.21394,14.709333 -23.17488,25.612961 -39.78589,28.515343 -4.007,0.700127 -8.1023,0.949026 -12.15365,0.415378 -2.84145,-0.374281 -6.13114,0.07996 -8.47228,-1.641687 -1.91037,-1.404865 0.90573,-3.143799 2.10558,-3.902001 3.99447,-2.524147 7.89264,-7.667172 12.50032,-6.650183 6.51136,1.43716 15.51518,-3.641889 16.64323,-10.141589 0.42291,-2.436812 -3.24137,-4.999382 -5.65265,-5.752244 -2.28083,-0.71213 -4.96081,-0.966353 -7.07184,0.07744 -11.09685,5.486823 -19.66399,14.741208 -30.2144,21.074153 -5.01078,3.007761 -14.30677,11.035699 -16.49683,5.582585 -1.04771,-2.608767 0.37994,-5.401071 1.63924,-7.648157 2.40308,-4.288025 8.42639,-7.308238 8.21326,-12.208916 -0.0863,-1.982131 -1.08457,-4.352135 -3.28253,-4.641199 -3.3786,-0.444336 -6.6456,0.986841 -9.6887,2.267532 -2.05146,0.863358 -4.59011,1.11303 -6.07317,2.772194 -0.81091,0.907188 -3.13618,3.484919 -2.73978,3.058989 7.31692,-7.862058 13.99082,-16.363695 21.85136,-23.679839 4.84967,-4.513805 9.84973,-9.133882 13.1393,-14.901361 0.85711,-1.502752 2.72864,-3.37375 1.77813,-4.956994 -1.00099,-1.66737 -3.42516,-0.816274 -4.84205,-0.269852 -1.66443,0.641892 -3.59197,0.987464 -4.93092,2.173425 -13.3428,11.818167 -21.05939,28.26634 -31.95149,42.206905 -2.61999,3.353269 -6.73251,5.831816 -9.90074,8.6771 -4.84398,4.350213 -8.03352,11.237499 -17.61816,7.44174 -5.24737,-2.078093 -13.31472,2.726308 -18.30723,-0.219494 -2.57153,-1.517329 -4.03477,-6.399489 -3.071,-9.245909 1.89397,-5.593786 7.30826,-9.436963 13.0767,-10.202021 4.43015,-0.587561 8.88899,1.030412 12.51986,3.99042 0.89166,0.726911 1.29482,3.484228 1.63644,3.084811 2.30138,-2.690754 4.71736,-6.196805 3.77123,-9.873545 -0.94201,-3.660633 -4.77791,-5.555772 -8.19647,-6.230192 -6.5374,-1.289715 -13.67153,0.259823 -19.00697,4.443185 -1.94539,1.525323 -2.55544,4.087889 -4.10723,5.872545 -5.00883,5.760472 -7.5724,12.273987 -13.65372,16.882772 -2.66121,2.016832 -8.09675,3.389936 -11.36806,4.311772 -2.37218,0.668466 -1.66817,-2.301576 -1.54341,-3.809061 0.16998,-2.053915 2.07498,-2.897665 3.39124,-4.177021 4.40902,-4.285458 8.90616,-8.790367 11.52828,-14.387134 0.82747,-1.766174 2.20258,-4.137479 0.88398,-5.840554 -1.36669,-1.76515 -4.58763,-2.676898 -5.85509,-1.178395 -6.43718,7.610524 -11.66735,16.589336 -19.51895,22.738641 -3.31062,2.592856 -8.40305,3.460466 -12.38402,4.996544 -1.77767,0.685918 -3.70703,-0.283514 -4.24446,-2.27905 -0.53662,-1.992616 0.26637,-3.84277 1.261,-5.565118 3.78227,-6.549516 7.18741,-13.527929 12.45393,-18.964109 0.59795,-0.617201 2.00873,-2.454652 0.40805,-0.99833 -5.88733,5.356323 -11.58139,10.946514 -17.99881,15.699988 -3.30902,2.451038 -6.24325,5.450851 -9.91946,7.3933 -2.37128,1.252942 -5.24631,0.475133 -7.15023,-1.274785 -3.83806,-3.527616 -6.37682,-8.191183 -8.70259,-12.781605 -1.12312,-2.216731 -1.46213,-4.95758 -0.67697,-7.332512 1.02123,-3.088935 4.57466,-4.263101 7.56689,-4.056762 4.16447,0.287177 8.70316,2.289486 10.51458,6.248123 1.44237,3.152098 -0.0187,6.930335 -2.50631,8.969334 -1.4652,1.200978 -1.99458,3.073872 -3.28308,4.479567 -4.32558,4.719033 -9.9251,8.233847 -15.91885,10.353257 -3.59178,1.270066 -7.5503,2.477553 -11.36108,1.456182 -2.24426,-0.601511 -3.27173,-3.021139 -3.12195,-5.227932 0.11835,-1.744019 6.3e-4,-3.875703 1.28573,-5.046203 3.41597,-3.111309 5.41171,-7.435627 8.35098,-10.987191 0.77301,-0.934028 1.13027,-3.36583 -0.74006,-2.087912 -2.33593,1.596032 -4.1663,3.771455 -6.06033,5.859273 -4.96874,5.477093 -10.63325,10.523557 -17.26066,13.844797 -3.41725,1.712501 -7.44302,3.584057 -11.27534,2.306035 -3.20106,-1.067503 -8.78633,-2.396171 -8.62303,-5.482617 0.0799,-1.511801 4.93424,-5.115264 5.70032,-6.416436 5.56039,-9.444063 14.03399,-16.634356 22.19233,-23.755473 7.35253,-6.417734 13.34724,-14.193467 20.63153,-20.801994 2.54637,-2.310149 10.39112,-8.92686 7.4399,-7.157292 -1.53445,0.920068 -2.88478,2.398476 -4.32343,3.567788 -1.29584,1.053248 -2.3233,2.321064 -3.34102,3.647265 -8.41965,8.449411 -15.3668,17.709812 -24.87896,25.161616 -5.96113,4.669934 -14.86064,7.77352 -19.26105,13.948248 -4.14283,5.813293 -8.37477,11.818272 -14.16236,16.059949 -1.99272,1.460451 -4.44998,3.479738 -6.97857,2.606681 -2.54372,-0.878276 -4.69599,-2.479062 -4.88545,-4.835499 -0.32353,-4.024053 3.86136,-8.801051 6.30576,-11.688515 2.5244,-2.981954 5.36125,-5.695343 7.61583,-8.932216 1.24714,-1.790505 0.1802,-3.981515 -1.66218,-4.936545 -1.65333,-0.857031 -5.17031,0.197176 -5.29952,-1.649214 -0.1731,-2.473305 0.77775,-5.728828 -1.12924,-7.388058 -1.47659,-1.284748 -2.67208,1.473897 -3.28375,2.57456 -3.01575,5.426683 -4.99704,11.500533 -8.95764,16.348218 -1.12434,1.376179 -2.54421,2.29551 -3.92533,3.404224 -5.76706,4.629553 -12.06607,8.595755 -18.63329,11.965449 -3.74388,1.921021 -7.53436,3.862348 -11.63063,4.96524 -2.68399,0.722644 -1.40237,-2.161198 -0.46409,-3.386648 1.97245,-2.576115 4.3316,-4.809787 6.30031,-7.397536 3.49046,-4.588006 5.96643,-9.919126 9.72015,-14.32072 1.36478,-1.600343 0.47288,-3.344692 -1.66006,-2.125275 -1.90775,1.090684 -5.59892,2.130736 -6.99574,3.818813 -5.64565,6.822897 -9.6764,13.924366 -17.04713,18.936544 -3.14545,2.138942 -6.8336,3.81518 -10.85772,3.588321 -7.2236,-0.407229 -6.84828,-1.222741 -6.5231,-7.658336 0.36826,-7.288206 7.89896,-12.13816 13.87721,-16.081844 6.70651,-4.424099 23.002,-4.950876 20.52276,-12.617812 -2.01891,-6.243364 -4.05587,-12.632534 -7.7879,-18.100744 -1.61982,-2.373358 -4.15739,-4.426099 -7.17223,-4.321382 -1.88154,0.06536 -3.70443,-0.398648 -5.22603,-1.837105 -4.63221,-4.379117 -8.64643,-9.634868 -14.39971,-12.656809 -2.64255,-1.388014 -6.08046,-1.475638 -8.484075,0.48762 -1.16997,0.955629 -3.522034,-0.122648 -4.88312,0.549675 C 87.282235,21.404988 82.558798,26.428837 78.73035,33.07662 73.457288,42.232851 68.457726,53.929995 63.456429,63.359119 59.167146,71.445857 53.566648,78.930407 46.62776,84.908493 41.821512,89.049239 34.723563,95.59797 28.231305,96.152552 23.341384,96.570261 18.636507,94.15321 15.337181,90.630101 c -0.758053,-0.809467 -0.0483,-4.492869 -0.700316,-5.38966"
       id="white1"
       transform="translate(2.280006,-1.140003)" /></g></svg>
